<?xml version='1.0' encoding='utf-8'?>
<svg xmlns="http://www.w3.org/2000/svg" width="207" height="265" viewBox="0 0 272 348">
    <defs>
        <linearGradient id="topGradient" gradientUnits="userSpaceOnUse" x1="300" y1="0" x2="0" y2="400">
            <stop offset="0" stop-color="#c4dede" />
            <stop offset="0.2" stop-color="#b1cbcd" />
            <stop offset="0.4" stop-color="#67b2d7" />
            <stop offset="0.6" stop-color="#7882b4" />
            <stop offset="0.8" stop-color="#66808e" />
            <stop offset="1" stop-color="#495669" />
        </linearGradient>
    </defs>
    <path fill="url(#topGradient)" d="M1 237 L62 272 L61 348 L0 312 Z M98 257 L132 275 L132 312 L71 347 L70 272 Z M202 168 L201 230 L141 264 L142 202 Z M70 169 L132 203 L132 264 L70 230 Z M70 241 L90 251 L70 262 Z M3 129 L63 164 L61 262 L1 227 Z M137 125 L196 160 L137 195 L78 160 Z M271 44 L272 119 L211 154 L210 79 Z M132 43 L132 118 L71 153 L70 78 Z M142 43 L202 77 L201 152 L141 118 Z M1 44 L62 78 L62 152 L1 118 Z M206 0 L266 36 L206 72 L146 36 Z M66 1 L126 36 L66 71 L6 36 Z" />
</svg>