<?xml version='1.0' encoding='utf-8'?>
<svg xmlns="http://www.w3.org/2000/svg" width="640" height="656" viewBox="0 0 640 656"><rect width="640" height="656" fill="#ffffff" /><text x="30" y="80" font-family="system-ui, Helvetica, sans-serif" font-size="13" font-weight="600" fill="#364152">Primary</text><rect x="170" y="30" width="140" height="90" rx="6" fill="#b5ddef" stroke="#d0d8e3" stroke-width="1" /><text x="170" y="136" font-family="system-ui, Helvetica, sans-serif" font-size="11" font-weight="500" fill="#1a1f2e">Teal 300</text><text x="170" y="152" font-family="ui-monospace, monospace" font-size="10" fill="#7b8da2">#B5DDEF</text><rect x="320" y="30" width="140" height="90" rx="6" fill="#67b2d7" /><text x="320" y="136" font-family="system-ui, Helvetica, sans-serif" font-size="11" font-weight="500" fill="#1a1f2e">Teal 500</text><text x="320" y="152" font-family="ui-monospace, monospace" font-size="10" fill="#7b8da2">#67B2D7</text><rect x="470" y="30" width="140" height="90" rx="6" fill="#357f9e" /><text x="470" y="136" font-family="system-ui, Helvetica, sans-serif" font-size="11" font-weight="500" fill="#1a1f2e">Teal 700</text><text x="470" y="152" font-family="ui-monospace, monospace" font-size="10" fill="#7b8da2">#357F9E</text><text x="30" y="234" font-family="system-ui, Helvetica, sans-serif" font-size="13" font-weight="600" fill="#364152">Neutrals Dark</text><rect x="170" y="184" width="140" height="90" rx="6" fill="#0f1729" /><text x="170" y="290" font-family="system-ui, Helvetica, sans-serif" font-size="11" font-weight="500" fill="#1a1f2e">Navy 950</text><text x="170" y="306" font-family="ui-monospace, monospace" font-size="10" fill="#7b8da2">#0F1729</text><rect x="320" y="184" width="140" height="90" rx="6" fill="#252c3d" /><text x="320" y="290" font-family="system-ui, Helvetica, sans-serif" font-size="11" font-weight="500" fill="#1a1f2e">Navy 800</text><text x="320" y="306" font-family="ui-monospace, monospace" font-size="10" fill="#7b8da2">#252C3D</text><rect x="470" y="184" width="140" height="90" rx="6" fill="#4b5768" /><text x="470" y="290" font-family="system-ui, Helvetica, sans-serif" font-size="11" font-weight="500" fill="#1a1f2e">Navy 600</text><text x="470" y="306" font-family="ui-monospace, monospace" font-size="10" fill="#7b8da2">#4B5768</text><text x="30" y="388" font-family="system-ui, Helvetica, sans-serif" font-size="13" font-weight="600" fill="#364152">Neutrals Light</text><rect x="170" y="338" width="140" height="90" rx="6" fill="#f7f9fb" stroke="#d0d8e3" stroke-width="1" /><text x="170" y="444" font-family="system-ui, Helvetica, sans-serif" font-size="11" font-weight="500" fill="#1a1f2e">Ice 50</text><text x="170" y="460" font-family="ui-monospace, monospace" font-size="10" fill="#7b8da2">#F7F9FB</text><rect x="320" y="338" width="140" height="90" rx="6" fill="#e8edf3" stroke="#d0d8e3" stroke-width="1" /><text x="320" y="444" font-family="system-ui, Helvetica, sans-serif" font-size="11" font-weight="500" fill="#1a1f2e">Ice 100</text><text x="320" y="460" font-family="ui-monospace, monospace" font-size="10" fill="#7b8da2">#E8EDF3</text><rect x="470" y="338" width="140" height="90" rx="6" fill="#a8b5c5" /><text x="470" y="444" font-family="system-ui, Helvetica, sans-serif" font-size="11" font-weight="500" fill="#1a1f2e">Ice 300</text><text x="470" y="460" font-family="ui-monospace, monospace" font-size="10" fill="#7b8da2">#A8B5C5</text><text x="30" y="542" font-family="system-ui, Helvetica, sans-serif" font-size="13" font-weight="600" fill="#364152">Accent</text><rect x="170" y="492" width="140" height="90" rx="6" fill="#5ac8a8" /><text x="170" y="598" font-family="system-ui, Helvetica, sans-serif" font-size="11" font-weight="500" fill="#1a1f2e">Mint</text><text x="170" y="614" font-family="ui-monospace, monospace" font-size="10" fill="#7b8da2">#5AC8A8</text><rect x="320" y="492" width="140" height="90" rx="6" fill="#f0a45b" /><text x="320" y="598" font-family="system-ui, Helvetica, sans-serif" font-size="11" font-weight="500" fill="#1a1f2e">Amber</text><text x="320" y="614" font-family="ui-monospace, monospace" font-size="10" fill="#7b8da2">#F0A45B</text><rect x="470" y="492" width="140" height="90" rx="6" fill="#e86b6b" /><text x="470" y="598" font-family="system-ui, Helvetica, sans-serif" font-size="11" font-weight="500" fill="#1a1f2e">Coral</text><text x="470" y="614" font-family="ui-monospace, monospace" font-size="10" fill="#7b8da2">#E86B6B</text></svg>