<?xml version="1.0" encoding="UTF-8" standalone="no"?>
<!DOCTYPE svg PUBLIC "-//W3C//DTD SVG 1.1//EN"
 "http://www.w3.org/Graphics/SVG/1.1/DTD/svg11.dtd">
<!-- Generated by graphviz version 14.1.2 (20260124.0452)
 -->
<!-- Title: SubAgent Pages: 1 -->
<svg width="288pt" height="47pt"
 viewBox="0.00 0.00 288.00 47.00" xmlns="http://www.w3.org/2000/svg" xmlns:xlink="http://www.w3.org/1999/xlink">
<g id="graph0" class="graph" transform="scale(1 1) rotate(0) translate(4 42.5)">
<title>SubAgent</title>
<polygon fill="white" stroke="none" points="-4,4 -4,-42.5 284,-42.5 284,4 -4,4"/>
<!-- start -->
<g id="node1" class="node">
<title>start</title>
<polygon fill="none" stroke="black" points="40.05,-37.25 0,-19.25 40.05,-1.25 80.1,-19.25 40.05,-37.25"/>
<polyline fill="none" stroke="black" points="10.95,-24.17 10.95,-14.33"/>
<polyline fill="none" stroke="black" points="29.11,-6.17 51,-6.17"/>
<polyline fill="none" stroke="black" points="69.16,-14.33 69.16,-24.17"/>
<polyline fill="none" stroke="black" points="51,-32.33 29.11,-32.33"/>
<text xml:space="preserve" text-anchor="middle" x="40.05" y="-14.2" font-family="Times,serif" font-size="14.00">Start</text>
</g>
<!-- research -->
<g id="node3" class="node">
<title>research</title>
<ellipse fill="none" stroke="black" cx="160.8" cy="-19.25" rx="44.7" ry="18"/>
<text xml:space="preserve" text-anchor="middle" x="160.8" y="-14.2" font-family="Times,serif" font-size="14.00">Research</text>
</g>
<!-- start&#45;&gt;research -->
<g id="edge1" class="edge">
<title>start&#45;&gt;research</title>
<path fill="none" stroke="black" d="M81.25,-19.25C88.76,-19.25 96.72,-19.25 104.58,-19.25"/>
<polygon fill="black" stroke="black" points="104.46,-22.75 114.46,-19.25 104.46,-15.75 104.46,-22.75"/>
</g>
<!-- exit -->
<g id="node2" class="node">
<title>exit</title>
<polygon fill="none" stroke="black" points="280,-38.5 241.5,-38.5 241.5,0 280,0 280,-38.5"/>
<polyline fill="none" stroke="black" points="253.5,-38.5 241.5,-26.5"/>
<polyline fill="none" stroke="black" points="241.5,-12 253.5,0"/>
<polyline fill="none" stroke="black" points="268,0 280,-12"/>
<polyline fill="none" stroke="black" points="280,-26.5 268,-38.5"/>
<text xml:space="preserve" text-anchor="middle" x="260.75" y="-14.2" font-family="Times,serif" font-size="14.00">Exit</text>
</g>
<!-- research&#45;&gt;exit -->
<g id="edge2" class="edge">
<title>research&#45;&gt;exit</title>
<path fill="none" stroke="black" d="M205.9,-19.25C213.94,-19.25 222.15,-19.25 229.66,-19.25"/>
<polygon fill="black" stroke="black" points="229.6,-22.75 239.6,-19.25 229.6,-15.75 229.6,-22.75"/>
</g>
</g>
</svg>
