<?xml version="1.0" encoding="UTF-8" standalone="no"?>
<!DOCTYPE svg PUBLIC "-//W3C//DTD SVG 1.1//EN"
 "http://www.w3.org/Graphics/SVG/1.1/DTD/svg11.dtd">
<!-- Generated by graphviz version 14.1.2 (20260124.0452)
 -->
<!-- Title: Pipeline Pages: 1 -->
<svg width="579pt" height="47pt"
 viewBox="0.00 0.00 579.00 47.00" xmlns="http://www.w3.org/2000/svg" xmlns:xlink="http://www.w3.org/1999/xlink">
<g id="graph0" class="graph" transform="scale(1 1) rotate(0) translate(4 42.5)">
<title>Pipeline</title>
<polygon fill="white" stroke="none" points="-4,4 -4,-42.5 574.62,-42.5 574.62,4 -4,4"/>
<!-- start -->
<g id="node1" class="node">
<title>start</title>
<polygon fill="none" stroke="black" points="40.05,-37.25 0,-19.25 40.05,-1.25 80.1,-19.25 40.05,-37.25"/>
<polyline fill="none" stroke="black" points="10.95,-24.17 10.95,-14.33"/>
<polyline fill="none" stroke="black" points="29.11,-6.17 51,-6.17"/>
<polyline fill="none" stroke="black" points="69.16,-14.33 69.16,-24.17"/>
<polyline fill="none" stroke="black" points="51,-32.33 29.11,-32.33"/>
<text xml:space="preserve" text-anchor="middle" x="40.05" y="-14.2" font-family="Times,serif" font-size="14.00">Start</text>
</g>
<!-- scan -->
<g id="node3" class="node">
<title>scan</title>
<polygon fill="none" stroke="black" points="260.68,-37.25 145.68,-37.25 116.1,-1.25 231.1,-1.25 260.68,-37.25"/>
<text xml:space="preserve" text-anchor="middle" x="188.39" y="-14.2" font-family="Times,serif" font-size="14.00">Scan Files</text>
</g>
<!-- start&#45;&gt;scan -->
<g id="edge1" class="edge">
<title>start&#45;&gt;scan</title>
<path fill="none" stroke="black" d="M81.04,-19.25C92.82,-19.25 106.06,-19.25 119.09,-19.25"/>
<polygon fill="black" stroke="black" points="118.93,-22.75 128.93,-19.25 118.93,-15.75 118.93,-22.75"/>
</g>
<!-- exit -->
<g id="node2" class="node">
<title>exit</title>
<polygon fill="none" stroke="black" points="570.62,-38.5 532.12,-38.5 532.12,0 570.62,0 570.62,-38.5"/>
<polyline fill="none" stroke="black" points="544.12,-38.5 532.12,-26.5"/>
<polyline fill="none" stroke="black" points="532.12,-12 544.12,0"/>
<polyline fill="none" stroke="black" points="558.62,0 570.62,-12"/>
<polyline fill="none" stroke="black" points="570.62,-26.5 558.62,-38.5"/>
<text xml:space="preserve" text-anchor="middle" x="551.37" y="-14.2" font-family="Times,serif" font-size="14.00">Exit</text>
</g>
<!-- analyze -->
<g id="node4" class="node">
<title>analyze</title>
<ellipse fill="none" stroke="black" cx="338.31" cy="-19.25" rx="41.63" ry="18"/>
<text xml:space="preserve" text-anchor="middle" x="338.31" y="-14.2" font-family="Times,serif" font-size="14.00">Analyze</text>
</g>
<!-- scan&#45;&gt;analyze -->
<g id="edge2" class="edge">
<title>scan&#45;&gt;analyze</title>
<path fill="none" stroke="black" d="M246.16,-19.25C259.01,-19.25 272.59,-19.25 285.23,-19.25"/>
<polygon fill="black" stroke="black" points="285.02,-22.75 295.02,-19.25 285.02,-15.75 285.02,-22.75"/>
</g>
<!-- suggest -->
<g id="node5" class="node">
<title>suggest</title>
<ellipse fill="none" stroke="black" cx="456.03" cy="-19.25" rx="40.09" ry="18"/>
<text xml:space="preserve" text-anchor="middle" x="456.03" y="-14.2" font-family="Times,serif" font-size="14.00">Suggest</text>
</g>
<!-- analyze&#45;&gt;suggest -->
<g id="edge3" class="edge">
<title>analyze&#45;&gt;suggest</title>
<path fill="none" stroke="black" d="M380.43,-19.25C388.11,-19.25 396.23,-19.25 404.16,-19.25"/>
<polygon fill="black" stroke="black" points="404.07,-22.75 414.07,-19.25 404.07,-15.75 404.07,-22.75"/>
</g>
<!-- suggest&#45;&gt;exit -->
<g id="edge4" class="edge">
<title>suggest&#45;&gt;exit</title>
<path fill="none" stroke="black" d="M496.61,-19.25C504.7,-19.25 513.07,-19.25 520.74,-19.25"/>
<polygon fill="black" stroke="black" points="520.54,-22.75 530.54,-19.25 520.54,-15.75 520.54,-22.75"/>
</g>
</g>
</svg>
