<?xml version="1.0" encoding="UTF-8" standalone="no"?>
<!DOCTYPE svg PUBLIC "-//W3C//DTD SVG 1.1//EN"
 "http://www.w3.org/Graphics/SVG/1.1/DTD/svg11.dtd">
<!-- Generated by graphviz version 14.1.2 (20260124.0452)
 -->
<!-- Title: BranchLoop Pages: 1 -->
<svg width="796pt" height="86pt"
 viewBox="0.00 0.00 796.00 86.00" xmlns="http://www.w3.org/2000/svg" xmlns:xlink="http://www.w3.org/1999/xlink">
<g id="graph0" class="graph" transform="scale(1 1) rotate(0) translate(4 82.25)">
<title>BranchLoop</title>
<polygon fill="white" stroke="none" points="-4,4 -4,-82.25 792.37,-82.25 792.37,4 -4,4"/>
<!-- start -->
<g id="node1" class="node">
<title>start</title>
<polygon fill="none" stroke="black" points="40.05,-37.25 0,-19.25 40.05,-1.25 80.1,-19.25 40.05,-37.25"/>
<polyline fill="none" stroke="black" points="10.95,-24.17 10.95,-14.33"/>
<polyline fill="none" stroke="black" points="29.11,-6.17 51,-6.17"/>
<polyline fill="none" stroke="black" points="69.16,-14.33 69.16,-24.17"/>
<polyline fill="none" stroke="black" points="51,-32.33 29.11,-32.33"/>
<text xml:space="preserve" text-anchor="middle" x="40.05" y="-14.2" font-family="Times,serif" font-size="14.00">Start</text>
</g>
<!-- plan -->
<g id="node3" class="node">
<title>plan</title>
<ellipse fill="none" stroke="black" cx="144.4" cy="-19.25" rx="27.3" ry="18"/>
<text xml:space="preserve" text-anchor="middle" x="144.4" y="-14.2" font-family="Times,serif" font-size="14.00">Plan</text>
</g>
<!-- start&#45;&gt;plan -->
<g id="edge1" class="edge">
<title>start&#45;&gt;plan</title>
<path fill="none" stroke="black" d="M81.21,-19.25C89.26,-19.25 97.69,-19.25 105.66,-19.25"/>
<polygon fill="black" stroke="black" points="105.38,-22.75 115.38,-19.25 105.38,-15.75 105.38,-22.75"/>
</g>
<!-- exit -->
<g id="node2" class="node">
<title>exit</title>
<polygon fill="none" stroke="black" points="788.37,-38.5 749.87,-38.5 749.87,0 788.37,0 788.37,-38.5"/>
<polyline fill="none" stroke="black" points="761.87,-38.5 749.87,-26.5"/>
<polyline fill="none" stroke="black" points="749.87,-12 761.87,0"/>
<polyline fill="none" stroke="black" points="776.37,0 788.37,-12"/>
<polyline fill="none" stroke="black" points="788.37,-26.5 776.37,-38.5"/>
<text xml:space="preserve" text-anchor="middle" x="769.12" y="-14.2" font-family="Times,serif" font-size="14.00">Exit</text>
</g>
<!-- implement -->
<g id="node4" class="node">
<title>implement</title>
<ellipse fill="none" stroke="black" cx="260.56" cy="-19.25" rx="51.86" ry="18"/>
<text xml:space="preserve" text-anchor="middle" x="260.56" y="-14.2" font-family="Times,serif" font-size="14.00">Implement</text>
</g>
<!-- plan&#45;&gt;implement -->
<g id="edge2" class="edge">
<title>plan&#45;&gt;implement</title>
<path fill="none" stroke="black" d="M172.16,-19.25C179.68,-19.25 188.18,-19.25 196.86,-19.25"/>
<polygon fill="black" stroke="black" points="196.78,-22.75 206.78,-19.25 196.78,-15.75 196.78,-22.75"/>
</g>
<!-- validate -->
<g id="node5" class="node">
<title>validate</title>
<polygon fill="none" stroke="black" points="469.99,-78.25 374.09,-78.25 349.42,-42.25 445.32,-42.25 469.99,-78.25"/>
<text xml:space="preserve" text-anchor="middle" x="409.7" y="-55.2" font-family="Times,serif" font-size="14.00">Validate</text>
</g>
<!-- implement&#45;&gt;validate -->
<g id="edge3" class="edge">
<title>implement&#45;&gt;validate</title>
<path fill="none" stroke="black" d="M301.77,-30.45C313.4,-33.69 326.45,-37.33 339.32,-40.92"/>
<polygon fill="black" stroke="black" points="338.03,-44.19 348.6,-43.5 339.91,-37.45 338.03,-44.19"/>
</g>
<!-- gate -->
<g id="node6" class="node">
<title>gate</title>
<polygon fill="none" stroke="black" points="598.43,-37.25 506.99,-19.25 598.43,-1.25 689.87,-19.25 598.43,-37.25"/>
<text xml:space="preserve" text-anchor="middle" x="598.43" y="-14.2" font-family="Times,serif" font-size="14.00">Tests passing?</text>
</g>
<!-- validate&#45;&gt;gate -->
<g id="edge4" class="edge">
<title>validate&#45;&gt;gate</title>
<path fill="none" stroke="black" d="M451.68,-51.25C478.31,-45.4 513.35,-37.71 542.4,-31.33"/>
<polygon fill="black" stroke="black" points="543.12,-34.76 552.14,-29.19 541.62,-27.92 543.12,-34.76"/>
</g>
<!-- gate&#45;&gt;exit -->
<g id="edge5" class="edge">
<title>gate&#45;&gt;exit</title>
<path fill="none" stroke="black" d="M692.16,-19.25C708.93,-19.25 725.24,-19.25 738.43,-19.25"/>
<polygon fill="black" stroke="black" points="738.07,-22.75 748.07,-19.25 738.07,-15.75 738.07,-22.75"/>
<text xml:space="preserve" text-anchor="middle" x="719.87" y="-22.45" font-family="Times,serif" font-size="14.00">Pass</text>
</g>
<!-- gate&#45;&gt;implement -->
<g id="edge6" class="edge">
<title>gate&#45;&gt;implement</title>
<path fill="none" stroke="black" d="M514.14,-17.38C499.43,-17.12 484.26,-16.89 469.99,-16.75 416.4,-16.22 403,-15.99 349.42,-16.75 341.24,-16.87 332.63,-17.04 324.13,-17.25"/>
<polygon fill="black" stroke="black" points="324.08,-13.75 314.17,-17.51 324.26,-20.75 324.08,-13.75"/>
<text xml:space="preserve" text-anchor="middle" x="409.7" y="-19.95" font-family="Times,serif" font-size="14.00">Fix</text>
</g>
</g>
</svg>
