<?xml version="1.0" encoding="UTF-8" standalone="no"?>
<!DOCTYPE svg PUBLIC "-//W3C//DTD SVG 1.1//EN"
 "http://www.w3.org/Graphics/SVG/1.1/DTD/svg11.dtd">
<!-- Generated by graphviz version 14.1.2 (20260124.0452)
 -->
<!-- Title: HumanGate Pages: 1 -->
<svg width="798pt" height="98pt"
 viewBox="0.00 0.00 798.00 98.00" xmlns="http://www.w3.org/2000/svg" xmlns:xlink="http://www.w3.org/1999/xlink">
<g id="graph0" class="graph" transform="scale(1 1) rotate(0) translate(4 94)">
<title>HumanGate</title>
<polygon fill="white" stroke="none" points="-4,4 -4,-94 793.75,-94 793.75,4 -4,4"/>
<!-- start -->
<g id="node1" class="node">
<title>start</title>
<polygon fill="none" stroke="black" points="40.05,-63 0,-45 40.05,-27 80.1,-45 40.05,-63"/>
<polyline fill="none" stroke="black" points="10.95,-49.92 10.95,-40.08"/>
<polyline fill="none" stroke="black" points="29.11,-31.92 51,-31.92"/>
<polyline fill="none" stroke="black" points="69.16,-40.08 69.16,-49.92"/>
<polyline fill="none" stroke="black" points="51,-58.08 29.11,-58.08"/>
<text xml:space="preserve" text-anchor="middle" x="40.05" y="-39.95" font-family="Times,serif" font-size="14.00">Start</text>
</g>
<!-- draft -->
<g id="node3" class="node">
<title>draft</title>
<ellipse fill="none" stroke="black" cx="182.27" cy="-45" rx="65.17" ry="18"/>
<text xml:space="preserve" text-anchor="middle" x="182.27" y="-39.95" font-family="Times,serif" font-size="14.00">Draft Proposal</text>
</g>
<!-- start&#45;&gt;draft -->
<g id="edge1" class="edge">
<title>start&#45;&gt;draft</title>
<path fill="none" stroke="black" d="M81.23,-45C88.85,-45 97.06,-45 105.37,-45"/>
<polygon fill="black" stroke="black" points="105.22,-48.5 115.22,-45 105.22,-41.5 105.22,-48.5"/>
</g>
<!-- exit -->
<g id="node2" class="node">
<title>exit</title>
<polygon fill="none" stroke="black" points="789.75,-63.25 751.25,-63.25 751.25,-24.75 789.75,-24.75 789.75,-63.25"/>
<polyline fill="none" stroke="black" points="763.25,-63.25 751.25,-51.25"/>
<polyline fill="none" stroke="black" points="751.25,-36.75 763.25,-24.75"/>
<polyline fill="none" stroke="black" points="777.75,-24.75 789.75,-36.75"/>
<polyline fill="none" stroke="black" points="789.75,-51.25 777.75,-63.25"/>
<text xml:space="preserve" text-anchor="middle" x="770.5" y="-38.95" font-family="Times,serif" font-size="14.00">Exit</text>
</g>
<!-- approve -->
<g id="node4" class="node">
<title>approve</title>
<polygon fill="none" stroke="black" points="472.77,-45 425.69,-63 331.52,-63 284.44,-45 331.52,-27 425.69,-27 472.77,-45"/>
<text xml:space="preserve" text-anchor="middle" x="378.61" y="-39.95" font-family="Times,serif" font-size="14.00">Approve Changes?</text>
</g>
<!-- draft&#45;&gt;approve -->
<g id="edge2" class="edge">
<title>draft&#45;&gt;approve</title>
<path fill="none" stroke="black" d="M247.71,-45C255.54,-45 263.68,-45 271.91,-45"/>
<polygon fill="black" stroke="black" points="271.64,-48.5 281.64,-45 271.64,-41.5 271.64,-48.5"/>
</g>
<!-- apply -->
<g id="node5" class="node">
<title>apply</title>
<ellipse fill="none" stroke="black" cx="646.01" cy="-72" rx="68.24" ry="18"/>
<text xml:space="preserve" text-anchor="middle" x="646.01" y="-66.95" font-family="Times,serif" font-size="14.00">Apply Changes</text>
</g>
<!-- approve&#45;&gt;apply -->
<g id="edge3" class="edge">
<title>approve&#45;&gt;apply</title>
<path fill="none" stroke="black" d="M454.24,-52.59C490.65,-56.3 534.31,-60.74 570.68,-64.44"/>
<polygon fill="black" stroke="black" points="569.9,-67.88 580.2,-65.41 570.61,-60.91 569.9,-67.88"/>
<text xml:space="preserve" text-anchor="middle" x="525.27" y="-66.47" font-family="Times,serif" font-size="14.00">[A] Approve</text>
</g>
<!-- skip -->
<g id="node6" class="node">
<title>skip</title>
<ellipse fill="none" stroke="black" cx="646.01" cy="-18" rx="27.81" ry="18"/>
<text xml:space="preserve" text-anchor="middle" x="646.01" y="-12.95" font-family="Times,serif" font-size="14.00">Skip</text>
</g>
<!-- approve&#45;&gt;skip -->
<g id="edge4" class="edge">
<title>approve&#45;&gt;skip</title>
<path fill="none" stroke="black" d="M454.24,-37.41C503.95,-32.35 567.2,-25.92 606.91,-21.88"/>
<polygon fill="black" stroke="black" points="607.09,-25.38 616.69,-20.88 606.39,-18.41 607.09,-25.38"/>
<text xml:space="preserve" text-anchor="middle" x="525.27" y="-36.32" font-family="Times,serif" font-size="14.00">[S] Skip</text>
</g>
<!-- apply&#45;&gt;exit -->
<g id="edge5" class="edge">
<title>apply&#45;&gt;exit</title>
<path fill="none" stroke="black" d="M698.6,-60.21C712.67,-56.99 727.44,-53.61 739.84,-50.78"/>
<polygon fill="black" stroke="black" points="740.45,-54.23 749.42,-48.59 738.89,-47.41 740.45,-54.23"/>
</g>
<!-- skip&#45;&gt;exit -->
<g id="edge6" class="edge">
<title>skip&#45;&gt;exit</title>
<path fill="none" stroke="black" d="M672.99,-23.51C692.59,-27.68 719.52,-33.39 739.95,-37.73"/>
<polygon fill="black" stroke="black" points="739.13,-41.13 749.64,-39.78 740.59,-34.28 739.13,-41.13"/>
</g>
</g>
</svg>
