<?xml version="1.0" encoding="UTF-8" standalone="no"?>
<!DOCTYPE svg PUBLIC "-//W3C//DTD SVG 1.1//EN"
 "http://www.w3.org/Graphics/SVG/1.1/DTD/svg11.dtd">
<!-- Generated by graphviz version 14.1.2 (20260124.0452)
 -->
<!-- Title: MultiModel Pages: 1 -->
<svg width="744pt" height="47pt"
 viewBox="0.00 0.00 744.00 47.00" xmlns="http://www.w3.org/2000/svg" xmlns:xlink="http://www.w3.org/1999/xlink">
<g id="graph0" class="graph" transform="scale(1 1) rotate(0) translate(4 42.5)">
<title>MultiModel</title>
<polygon fill="white" stroke="none" points="-4,4 -4,-42.5 740.03,-42.5 740.03,4 -4,4"/>
<!-- start -->
<g id="node1" class="node">
<title>start</title>
<polygon fill="none" stroke="black" points="40.05,-37.25 0,-19.25 40.05,-1.25 80.1,-19.25 40.05,-37.25"/>
<polyline fill="none" stroke="black" points="10.95,-24.17 10.95,-14.33"/>
<polyline fill="none" stroke="black" points="29.11,-6.17 51,-6.17"/>
<polyline fill="none" stroke="black" points="69.16,-14.33 69.16,-24.17"/>
<polyline fill="none" stroke="black" points="51,-32.33 29.11,-32.33"/>
<text xml:space="preserve" text-anchor="middle" x="40.05" y="-14.2" font-family="Times,serif" font-size="14.00">Start</text>
</g>
<!-- spec -->
<g id="node3" class="node">
<title>spec</title>
<ellipse fill="none" stroke="black" cx="168.48" cy="-19.25" rx="52.38" ry="18"/>
<text xml:space="preserve" text-anchor="middle" x="168.48" y="-14.2" font-family="Times,serif" font-size="14.00">Write Spec</text>
</g>
<!-- start&#45;&gt;spec -->
<g id="edge1" class="edge">
<title>start&#45;&gt;spec</title>
<path fill="none" stroke="black" d="M81.05,-19.25C88.44,-19.25 96.32,-19.25 104.2,-19.25"/>
<polygon fill="black" stroke="black" points="104.18,-22.75 114.18,-19.25 104.18,-15.75 104.18,-22.75"/>
</g>
<!-- exit -->
<g id="node2" class="node">
<title>exit</title>
<polygon fill="none" stroke="black" points="736.03,-38.5 697.53,-38.5 697.53,0 736.03,0 736.03,-38.5"/>
<polyline fill="none" stroke="black" points="709.53,-38.5 697.53,-26.5"/>
<polyline fill="none" stroke="black" points="697.53,-12 709.53,0"/>
<polyline fill="none" stroke="black" points="724.03,0 736.03,-12"/>
<polyline fill="none" stroke="black" points="736.03,-26.5 724.03,-38.5"/>
<text xml:space="preserve" text-anchor="middle" x="716.78" y="-14.2" font-family="Times,serif" font-size="14.00">Exit</text>
</g>
<!-- implement -->
<g id="node4" class="node coding">
<title>implement</title>
<ellipse fill="none" stroke="black" cx="308.71" cy="-19.25" rx="51.86" ry="18"/>
<text xml:space="preserve" text-anchor="middle" x="308.71" y="-14.2" font-family="Times,serif" font-size="14.00">Implement</text>
</g>
<!-- spec&#45;&gt;implement -->
<g id="edge2" class="edge">
<title>spec&#45;&gt;implement</title>
<path fill="none" stroke="black" d="M221.34,-19.25C229.07,-19.25 237.09,-19.25 245.01,-19.25"/>
<polygon fill="black" stroke="black" points="244.96,-22.75 254.96,-19.25 244.96,-15.75 244.96,-22.75"/>
</g>
<!-- test -->
<g id="node5" class="node coding">
<title>test</title>
<ellipse fill="none" stroke="black" cx="449.98" cy="-19.25" rx="53.4" ry="18"/>
<text xml:space="preserve" text-anchor="middle" x="449.98" y="-14.2" font-family="Times,serif" font-size="14.00">Write Tests</text>
</g>
<!-- implement&#45;&gt;test -->
<g id="edge3" class="edge">
<title>implement&#45;&gt;test</title>
<path fill="none" stroke="black" d="M360.78,-19.25C368.69,-19.25 376.95,-19.25 385.11,-19.25"/>
<polygon fill="black" stroke="black" points="385,-22.75 395,-19.25 385,-15.75 385,-22.75"/>
</g>
<!-- review -->
<g id="node6" class="node">
<title>review</title>
<ellipse fill="none" stroke="black" cx="600.45" cy="-19.25" rx="61.08" ry="18"/>
<text xml:space="preserve" text-anchor="middle" x="600.45" y="-14.2" font-family="Times,serif" font-size="14.00">Code Review</text>
</g>
<!-- test&#45;&gt;review -->
<g id="edge4" class="edge">
<title>test&#45;&gt;review</title>
<path fill="none" stroke="black" d="M503.74,-19.25C511.5,-19.25 519.61,-19.25 527.67,-19.25"/>
<polygon fill="black" stroke="black" points="527.5,-22.75 537.5,-19.25 527.5,-15.75 527.5,-22.75"/>
</g>
<!-- review&#45;&gt;exit -->
<g id="edge5" class="edge">
<title>review&#45;&gt;exit</title>
<path fill="none" stroke="black" d="M661.96,-19.25C670.3,-19.25 678.54,-19.25 685.97,-19.25"/>
<polygon fill="black" stroke="black" points="685.72,-22.75 695.72,-19.25 685.72,-15.75 685.72,-22.75"/>
</g>
</g>
</svg>
