<?xml version='1.0' encoding='utf-8'?>
<svg xmlns="http://www.w3.org/2000/svg" width="207" height="201" viewBox="72 79 208 202">
    <defs><linearGradient id="topGradient" gradientUnits="userSpaceOnUse" x1="774" y1="59" x2="66" y2="672"><stop offset="1e-05" stop-color="#c4dede" /><stop offset="0.2" stop-color="#b1cbcd" /><stop offset="0.4" stop-color="#67b2d7" /><stop offset="0.6" stop-color="#7882b4" /><stop offset="0.8" stop-color="#66808e" /><stop offset="1" stop-color="#495669" /></linearGradient></defs><g id="Group">
        <path id="Path" fill="#161716" stroke="none" d="M -275 0 L 1126 0 L 1126 360 L -275 360 Z M 169.5 269.690002 C 177.799988 271.269989 192.589996 270.589996 201.880005 268.190002 C 232.209991 260.359985 257.909973 234.559998 265.880005 203.940002 C 268.77002 192.830017 269.640015 178.910034 267.97998 170.619995 C 267.809998 169.799988 267.440002 167.609985 267.150024 165.75 C 264.780029 150.700012 254.200012 130.660034 242.400024 118.849976 C 237.48999 113.950012 227.160004 105.75 225.880005 105.75 C 225.700012 105.75 224.350006 104.929993 222.859985 103.910034 C 218.070007 100.660034 204.709991 95.940002 196.040009 94.429993 C 166.440002 89.280029 137.299988 98.450012 116.619995 119.429993 C 85.429993 151.059998 82.200012 200.559998 109.040009 235.690002 C 110.859985 238.059998 112.649994 240 113.029999 240 C 113.410004 240 114.609985 238.22998 115.700012 236.059998 C 119.579987 228.309998 124.290009 221.070007 129.140015 215.390015 C 133.040009 210.820007 145.070007 204.01001 154.25 201.160034 C 156.940002 200.339966 163.619995 198.599976 169.130005 197.309998 C 185.309998 193.5 193.75 189.23999 198.869995 182.26001 C 202.98999 176.650024 204.119995 172.97998 204.109985 165.380005 C 204.100006 159.25 203.869995 158.150024 201.609985 153.559998 C 197.290009 144.77002 189.279999 139.809998 179.029999 139.570007 C 171.549988 139.390015 166 141.469971 160.51001 146.47998 C 154.75 151.75 152.579987 156.309998 152.149994 164.059998 C 151.959991 167.469971 152.109985 170.23999 152.470001 170.22998 C 152.829987 170.22998 154.440002 167.950012 156.049988 165.169983 C 163.910004 151.580017 166.920013 148.549988 174.140015 146.929993 C 183.170013 144.910034 191.5 148.880005 195.559998 157.119995 C 197.730011 161.539978 197.920013 162.469971 197.579987 167.150024 C 197.279999 171.299988 196.769989 172.929993 194.929993 175.580017 C 191.880005 179.97998 188.309998 183.280029 187.109985 182.820007 C 186.570007 182.609985 184.480011 179.51001 182.470001 175.940002 C 180.470001 172.359985 178.440002 169.549988 177.970001 169.700012 C 177.51001 169.839966 174.540009 174.5 171.369995 180.049988 C 167.980011 185.97998 164.899994 190.48999 163.869995 191.02002 C 162.910004 191.52002 158.679993 192.97998 154.480011 194.280029 C 150.269989 195.570007 144.290009 197.910034 141.170013 199.47998 C 138.049988 201.049988 135.5 202.25 135.5 202.169983 C 135.5 202.080017 137.690002 197.919983 140.380005 192.919983 C 143.059998 187.919983 145.25 183.390015 145.23999 182.849976 C 145.230011 180.789978 141.570007 174.130005 140.25 173.76001 C 139.5 173.549988 137.570007 173.160034 135.970001 172.890015 L 133.059998 172.400024 L 133.529999 168.969971 C 133.790009 167.089966 134 163.940002 134 161.97998 L 134 158.429993 L 137.23999 157.609985 C 140.980011 156.679993 142.25 155.429993 144.279999 150.75 L 145.75 147.380005 L 144 143.619995 C 143.049988 141.559998 142.26001 139.48999 142.26001 139 C 142.26001 138.530029 143.959991 136.450012 146.049988 134.410034 C 149.5 131.039978 150.089996 130.72998 152.23999 131.219971 C 153.549988 131.52002 155.670013 132.309998 156.950012 132.969971 C 159.160004 134.109985 159.51001 134.080017 163.700012 132.410034 C 168.279999 130.580017 170.73999 127.660034 170.75 124.030029 C 170.75 121.549988 172.149994 121.080017 178.769989 121.359985 L 184.920013 121.609985 L 186.089996 125.619995 C 187.200012 129.440002 187.480011 129.75 191.470001 131.570007 C 196.720001 133.969971 198.190002 133.97998 201.660004 131.619995 C 203.179993 130.589966 204.630005 129.75 204.890015 129.75 C 205.660004 129.75 214.25 138.160034 214.25 138.910034 C 214.25 139.280029 213.399994 141.380005 212.369995 143.559998 L 210.48999 147.539978 L 212.329987 151.690002 C 214.070007 155.640015 214.380005 155.919983 218.519989 157.299988 L 222.880005 158.75 L 222.880005 172.030029 L 219.200012 172.969971 C 215.220001 173.97998 213.649994 175.140015 213.149994 177.419983 C 212.980011 178.219971 212.410004 179.960022 211.890015 181.299988 C 211.049988 183.440002 211.130005 184.119995 212.600006 187.140015 C 214.109985 190.25 214.160004 190.73999 213.170013 192.589966 C 208.190002 201.880005 197.420013 207.339966 168.910004 215.02002 C 153.459991 219.179993 144.880005 224.380005 140.130005 232.450012 C 138.380005 235.450012 138.119995 236.679993 138.130005 242.25 C 138.149994 247.669983 138.440002 249.190002 140.119995 252.380005 C 144.850006 261.359985 153.950012 266.720001 169.5 269.690002 Z M 237.22998 232.669983 C 236.350006 233.25 217.380005 233.289978 214.470001 232.72998 C 213.570007 232.549988 212.640015 231.830017 212.420013 231.140015 C 212.190002 230.440002 209.640015 225.820007 206.76001 220.880005 C 203.859985 215.940002 201.5 211.640015 201.5 211.339966 C 201.5 211.030029 202.929993 210.049988 204.690002 209.160034 C 206.440002 208.27002 210.119995 205.25 212.880005 202.460022 C 213.01001 202.320007 213.149994 202.190002 213.279999 202.059998 C 215.809998 199.47998 217.119995 198.150024 218.220001 198.309998 C 219.440002 198.47998 220.399994 200.5 222.51001 204.719971 C 223.839996 207.390015 225.679993 210.77002 226.600006 212.219971 C 227.51001 213.679993 229.119995 216.390015 230.160004 218.25 C 231.209991 220.109985 233.410004 223.98999 235.070007 226.880005 C 237.119995 230.469971 237.809998 232.299988 237.22998 232.669983 Z" /><path id="Icon" fill="url(#topGradient)" stroke="none" d="M 169.5 269.690002 C 153.950012 266.720001 144.850006 261.359985 140.119995 252.380005 C 138.440002 249.190002 138.149994 247.669983 138.130005 242.25 C 138.119995 236.679993 138.380005 235.450012 140.130005 232.450012 C 144.880005 224.380005 153.459991 219.179993 168.910004 215.02002 C 197.420013 207.339966 208.190002 201.880005 213.170013 192.589966 C 214.160004 190.73999 214.109985 190.25 212.600006 187.140015 C 211.130005 184.119995 211.049988 183.440002 211.890015 181.299988 C 212.410004 179.960022 212.980011 178.219971 213.149994 177.419983 C 213.649994 175.140015 215.220001 173.97998 219.200012 172.969971 L 222.880005 172.030029 L 222.880005 165.390015 L 222.880005 158.75 L 218.519989 157.299988 C 214.380005 155.919983 214.070007 155.640015 212.329987 151.690002 L 210.48999 147.539978 L 212.369995 143.559998 C 213.399994 141.380005 214.25 139.280029 214.25 138.910034 C 214.25 138.160034 205.660004 129.75 204.890015 129.75 C 204.630005 129.75 203.179993 130.589966 201.660004 131.619995 C 198.190002 133.97998 196.720001 133.969971 191.470001 131.570007 C 187.480011 129.75 187.200012 129.440002 186.089996 125.619995 L 184.920013 121.609985 L 178.769989 121.359985 C 172.149994 121.080017 170.75 121.549988 170.75 124.030029 C 170.73999 127.660034 168.279999 130.580017 163.709991 132.410034 L 159.279999 134.169983 L 156.440002 132.719971 C 154.880005 131.929993 153.390015 130.929993 153.130005 130.51001 C 152.869995 130.089966 152.25 129.75 151.75 129.75 C 150.559998 129.75 142.25 137.859985 142.26001 139 C 142.26001 139.48999 143.049988 141.559998 144 143.619995 L 145.75 147.380005 L 144.279999 150.75 C 142.25 155.429993 140.980011 156.679993 137.23999 157.609985 L 134 158.429993 L 134 161.97998 C 134 163.940002 133.790009 167.089966 133.529999 168.969971 L 133.059998 172.400024 L 135.970001 172.890015 C 137.570007 173.160034 139.5 173.549988 140.25 173.76001 C 141.570007 174.130005 145.230011 180.789978 145.23999 182.849976 C 145.25 183.390015 143.059998 187.919983 140.380005 192.919983 C 137.690002 197.919983 135.5 202.080017 135.5 202.169983 C 135.5 202.25 138.049988 201.049988 141.170013 199.47998 C 144.290009 197.910034 150.269989 195.570007 154.480011 194.280029 C 158.679993 192.97998 162.910004 191.52002 163.869995 191.02002 C 164.899994 190.48999 167.980011 185.97998 171.369995 180.049988 C 174.540009 174.5 177.51001 169.839966 177.970001 169.700012 C 178.440002 169.549988 180.470001 172.359985 182.470001 175.940002 C 184.480011 179.51001 186.570007 182.609985 187.109985 182.820007 C 188.309998 183.280029 191.880005 179.97998 194.929993 175.580017 C 196.769989 172.929993 197.279999 171.299988 197.579987 167.150024 C 197.920013 162.469971 197.730011 161.539978 195.559998 157.119995 C 191.5 148.880005 183.170013 144.910034 174.140015 146.929993 C 166.920013 148.549988 163.910004 151.580017 156.049988 165.169983 C 154.440002 167.950012 152.829987 170.22998 152.470001 170.22998 C 152.109985 170.23999 151.959991 167.469971 152.149994 164.059998 C 152.579987 156.309998 154.75 151.75 160.51001 146.47998 C 166 141.469971 171.549988 139.390015 179.029999 139.570007 C 189.279999 139.809998 197.290009 144.77002 201.609985 153.559998 C 203.869995 158.150024 204.100006 159.25 204.109985 165.380005 C 204.119995 172.97998 202.98999 176.650024 198.869995 182.26001 C 193.75 189.23999 185.309998 193.5 169.130005 197.309998 C 163.619995 198.599976 156.940002 200.339966 154.25 201.160034 C 145.070007 204.01001 133.040009 210.820007 129.140015 215.390015 C 124.290009 221.070007 119.579987 228.309998 115.700012 236.059998 C 114.609985 238.22998 113.410004 240 113.029999 240 C 112.649994 240 110.859985 238.059998 109.040009 235.690002 C 82.200012 200.559998 85.429993 151.059998 116.619995 119.429993 C 137.299988 98.450012 166.440002 89.280029 196.040009 94.429993 C 204.709991 95.940002 218.070007 100.660034 222.859985 103.910034 C 224.350006 104.929993 225.700012 105.75 225.880005 105.75 C 227.160004 105.75 237.48999 113.950012 242.400024 118.849976 C 254.200012 130.660034 264.780029 150.700012 267.150024 165.75 C 267.440002 167.609985 267.809998 169.799988 267.97998 170.619995 C 269.640015 178.910034 268.77002 192.830017 265.880005 203.940002 C 257.909973 234.559998 232.209991 260.359985 201.880005 268.190002 C 192.589996 270.589996 177.799988 271.269989 169.5 269.690002 Z M 237.22998 232.669983 C 237.809998 232.299988 237.119995 230.469971 235.070007 226.880005 C 233.410004 223.98999 231.209991 220.109985 230.160004 218.25 C 229.119995 216.390015 227.51001 213.679993 226.600006 212.219971 C 225.679993 210.77002 223.839996 207.390015 222.51001 204.719971 C 218.410004 196.549988 218.649994 196.599976 212.880005 202.460022 C 210.119995 205.25 206.440002 208.27002 204.690002 209.160034 C 202.929993 210.049988 201.5 211.030029 201.5 211.339966 C 201.5 211.640015 203.859985 215.940002 206.76001 220.880005 C 209.640015 225.820007 212.190002 230.440002 212.420013 231.140015 C 212.640015 231.830017 213.570007 232.549988 214.470001 232.72998 C 217.380005 233.289978 236.350006 233.25 237.22998 232.669983 Z M 169.5 269.690002 C 153.950012 266.720001 144.850006 261.359985 140.119995 252.380005 C 138.440002 249.190002 138.149994 247.669983 138.130005 242.25 C 138.119995 236.679993 138.380005 235.450012 140.130005 232.450012 C 144.880005 224.380005 153.459991 219.179993 168.910004 215.02002 C 197.420013 207.339966 208.190002 201.880005 213.170013 192.589966 C 214.160004 190.73999 214.109985 190.25 212.600006 187.140015 C 211.130005 184.119995 211.049988 183.440002 211.890015 181.299988 C 212.410004 179.960022 212.980011 178.219971 213.149994 177.419983 C 213.649994 175.140015 215.220001 173.97998 219.200012 172.969971 L 222.880005 172.030029 L 222.880005 165.390015 L 222.880005 158.75 L 218.519989 157.299988 C 214.380005 155.919983 214.070007 155.640015 212.329987 151.690002 L 210.48999 147.539978 L 212.369995 143.559998 C 213.399994 141.380005 214.25 139.280029 214.25 138.910034 C 214.25 138.160034 205.660004 129.75 204.890015 129.75 C 204.630005 129.75 203.179993 130.589966 201.660004 131.619995 C 198.190002 133.97998 196.720001 133.969971 191.470001 131.570007 C 187.480011 129.75 187.200012 129.440002 186.089996 125.619995 L 184.920013 121.609985 L 178.769989 121.359985 C 172.149994 121.080017 170.75 121.549988 170.75 124.030029 C 170.73999 127.660034 168.279999 130.580017 163.709991 132.410034 L 159.279999 134.169983 L 156.440002 132.719971 C 154.880005 131.929993 153.390015 130.929993 153.130005 130.51001 C 152.869995 130.089966 152.25 129.75 151.75 129.75 C 150.559998 129.75 142.25 137.859985 142.26001 139 C 142.26001 139.48999 143.049988 141.559998 144 143.619995 L 145.75 147.380005 L 144.279999 150.75 C 142.25 155.429993 140.980011 156.679993 137.23999 157.609985 L 134 158.429993 L 134 161.97998 C 134 163.940002 133.790009 167.089966 133.529999 168.969971 L 133.059998 172.400024 L 135.970001 172.890015 C 137.570007 173.160034 139.5 173.549988 140.25 173.76001 C 141.570007 174.130005 145.230011 180.789978 145.23999 182.849976 C 145.25 183.390015 143.059998 187.919983 140.380005 192.919983 C 137.690002 197.919983 135.5 202.080017 135.5 202.169983 C 135.5 202.25 138.049988 201.049988 141.170013 199.47998 C 144.290009 197.910034 150.269989 195.570007 154.480011 194.280029 C 158.679993 192.97998 162.910004 191.52002 163.869995 191.02002 C 164.899994 190.48999 167.980011 185.97998 171.369995 180.049988 C 174.540009 174.5 177.51001 169.839966 177.970001 169.700012 C 178.440002 169.549988 180.470001 172.359985 182.470001 175.940002 C 184.480011 179.51001 186.570007 182.609985 187.109985 182.820007 C 188.309998 183.280029 191.880005 179.97998 194.929993 175.580017 C 196.769989 172.929993 197.279999 171.299988 197.579987 167.150024 C 197.920013 162.469971 197.730011 161.539978 195.559998 157.119995 C 191.5 148.880005 183.170013 144.910034 174.140015 146.929993 C 166.920013 148.549988 163.910004 151.580017 156.049988 165.169983 C 154.440002 167.950012 152.829987 170.22998 152.470001 170.22998 C 152.109985 170.23999 151.959991 167.469971 152.149994 164.059998 C 152.579987 156.309998 154.75 151.75 160.51001 146.47998 C 166 141.469971 171.549988 139.390015 179.029999 139.570007 C 189.279999 139.809998 197.290009 144.77002 201.609985 153.559998 C 203.869995 158.150024 204.100006 159.25 204.109985 165.380005 C 204.119995 172.97998 202.98999 176.650024 198.869995 182.26001 C 193.75 189.23999 185.309998 193.5 169.130005 197.309998 C 163.619995 198.599976 156.940002 200.339966 154.25 201.160034 C 145.070007 204.01001 133.040009 210.820007 129.140015 215.390015 C 124.290009 221.070007 119.579987 228.309998 115.700012 236.059998 C 114.609985 238.22998 113.410004 240 113.029999 240 C 112.649994 240 110.859985 238.059998 109.040009 235.690002 C 82.200012 200.559998 85.429993 151.059998 116.619995 119.429993 C 137.299988 98.450012 166.440002 89.280029 196.040009 94.429993 C 204.709991 95.940002 218.070007 100.660034 222.859985 103.910034 C 224.350006 104.929993 225.700012 105.75 225.880005 105.75 C 227.160004 105.75 237.48999 113.950012 242.400024 118.849976 C 254.200012 130.660034 264.780029 150.700012 267.150024 165.75 C 267.440002 167.609985 267.809998 169.799988 267.97998 170.619995 C 269.640015 178.910034 268.77002 192.830017 265.880005 203.940002 C 257.909973 234.559998 232.209991 260.359985 201.880005 268.190002 C 192.589996 270.589996 177.799988 271.269989 169.5 269.690002 Z M 237.22998 232.669983 C 237.809998 232.299988 237.119995 230.469971 235.070007 226.880005 C 233.410004 223.98999 231.209991 220.109985 230.160004 218.25 C 229.119995 216.390015 227.51001 213.679993 226.600006 212.219971 C 225.679993 210.77002 223.839996 207.390015 222.51001 204.719971 C 218.410004 196.549988 218.649994 196.599976 212.880005 202.460022 C 210.119995 205.25 206.440002 208.27002 204.690002 209.160034 C 202.929993 210.049988 201.5 211.030029 201.5 211.339966 C 201.5 211.640015 203.859985 215.940002 206.76001 220.880005 C 209.640015 225.820007 212.190002 230.440002 212.420013 231.140015 C 212.640015 231.830017 213.570007 232.549988 214.470001 232.72998 C 217.380005 233.289978 236.350006 233.25 237.22998 232.669983 Z M 169.5 269.690002 C 153.950012 266.720001 144.850006 261.359985 140.119995 252.380005 C 138.440002 249.190002 138.149994 247.669983 138.130005 242.25 C 138.119995 236.679993 138.380005 235.450012 140.130005 232.450012 C 144.880005 224.380005 153.459991 219.179993 168.910004 215.02002 C 197.420013 207.339966 208.190002 201.880005 213.170013 192.589966 C 214.160004 190.73999 214.109985 190.25 212.600006 187.140015 C 211.130005 184.119995 211.049988 183.440002 211.890015 181.299988 C 212.410004 179.960022 212.980011 178.219971 213.149994 177.419983 C 213.649994 175.140015 215.220001 173.97998 219.200012 172.969971 L 222.880005 172.030029 L 222.880005 165.390015 L 222.880005 158.75 L 218.519989 157.299988 C 214.380005 155.919983 214.070007 155.640015 212.329987 151.690002 L 210.48999 147.539978 L 212.369995 143.559998 C 213.399994 141.380005 214.25 139.280029 214.25 138.910034 C 214.25 138.160034 205.660004 129.75 204.890015 129.75 C 204.630005 129.75 203.179993 130.589966 201.660004 131.619995 C 198.190002 133.97998 196.720001 133.969971 191.470001 131.570007 C 187.480011 129.75 187.200012 129.440002 186.089996 125.619995 L 184.920013 121.609985 L 178.769989 121.359985 C 172.149994 121.080017 170.75 121.549988 170.75 124.030029 C 170.73999 127.660034 168.279999 130.580017 163.709991 132.410034 L 159.279999 134.169983 L 156.440002 132.719971 C 154.880005 131.929993 153.390015 130.929993 153.130005 130.51001 C 152.869995 130.089966 152.25 129.75 151.75 129.75 C 150.559998 129.75 142.25 137.859985 142.26001 139 C 142.26001 139.48999 143.049988 141.559998 144 143.619995 L 145.75 147.380005 L 144.279999 150.75 C 142.25 155.429993 140.980011 156.679993 137.23999 157.609985 L 134 158.429993 L 134 161.97998 C 134 163.940002 133.790009 167.089966 133.529999 168.969971 L 133.059998 172.400024 L 135.970001 172.890015 C 137.570007 173.160034 139.5 173.549988 140.25 173.76001 C 141.570007 174.130005 145.230011 180.789978 145.23999 182.849976 C 145.25 183.390015 143.059998 187.919983 140.380005 192.919983 C 137.690002 197.919983 135.5 202.080017 135.5 202.169983 C 135.5 202.25 138.049988 201.049988 141.170013 199.47998 C 144.290009 197.910034 150.269989 195.570007 154.480011 194.280029 C 158.679993 192.97998 162.910004 191.52002 163.869995 191.02002 C 164.899994 190.48999 167.980011 185.97998 171.369995 180.049988 C 174.540009 174.5 177.51001 169.839966 177.970001 169.700012 C 178.440002 169.549988 180.470001 172.359985 182.470001 175.940002 C 184.480011 179.51001 186.570007 182.609985 187.109985 182.820007 C 188.309998 183.280029 191.880005 179.97998 194.929993 175.580017 C 196.769989 172.929993 197.279999 171.299988 197.579987 167.150024 C 197.920013 162.469971 197.730011 161.539978 195.559998 157.119995 C 191.5 148.880005 183.170013 144.910034 174.140015 146.929993 C 166.920013 148.549988 163.910004 151.580017 156.049988 165.169983 C 154.440002 167.950012 152.829987 170.22998 152.470001 170.22998 C 152.109985 170.23999 151.959991 167.469971 152.149994 164.059998 C 152.579987 156.309998 154.75 151.75 160.51001 146.47998 C 166 141.469971 171.549988 139.390015 179.029999 139.570007 C 189.279999 139.809998 197.290009 144.77002 201.609985 153.559998 C 203.869995 158.150024 204.100006 159.25 204.109985 165.380005 C 204.119995 172.97998 202.98999 176.650024 198.869995 182.26001 C 193.75 189.23999 185.309998 193.5 169.130005 197.309998 C 163.619995 198.599976 156.940002 200.339966 154.25 201.160034 C 145.070007 204.01001 133.040009 210.820007 129.140015 215.390015 C 124.290009 221.070007 119.579987 228.309998 115.700012 236.059998 C 114.609985 238.22998 113.410004 240 113.029999 240 C 112.649994 240 110.859985 238.059998 109.040009 235.690002 C 82.200012 200.559998 85.429993 151.059998 116.619995 119.429993 C 137.299988 98.450012 166.440002 89.280029 196.040009 94.429993 C 204.709991 95.940002 218.070007 100.660034 222.859985 103.910034 C 224.350006 104.929993 225.700012 105.75 225.880005 105.75 C 227.160004 105.75 237.48999 113.950012 242.400024 118.849976 C 254.200012 130.660034 264.780029 150.700012 267.150024 165.75 C 267.440002 167.609985 267.809998 169.799988 267.97998 170.619995 C 269.640015 178.910034 268.77002 192.830017 265.880005 203.940002 C 257.909973 234.559998 232.209991 260.359985 201.880005 268.190002 C 192.589996 270.589996 177.799988 271.269989 169.5 269.690002 Z M 237.22998 232.669983 C 237.809998 232.299988 237.119995 230.469971 235.070007 226.880005 C 233.410004 223.98999 231.209991 220.109985 230.160004 218.25 C 229.119995 216.390015 227.51001 213.679993 226.600006 212.219971 C 225.679993 210.77002 223.839996 207.390015 222.51001 204.719971 C 218.410004 196.549988 218.649994 196.599976 212.880005 202.460022 C 210.119995 205.25 206.440002 208.27002 204.690002 209.160034 C 202.929993 210.049988 201.5 211.030029 201.5 211.339966 C 201.5 211.640015 203.859985 215.940002 206.76001 220.880005 C 209.640015 225.820007 212.190002 230.440002 212.420013 231.140015 C 212.640015 231.830017 213.570007 232.549988 214.470001 232.72998 C 217.380005 233.289978 236.350006 233.25 237.22998 232.669983 Z M 169.5 269.690002 C 153.950012 266.720001 144.850006 261.359985 140.119995 252.380005 C 138.440002 249.190002 138.149994 247.669983 138.130005 242.25 C 138.119995 236.679993 138.380005 235.450012 140.130005 232.450012 C 144.880005 224.380005 153.459991 219.179993 168.910004 215.02002 C 197.420013 207.339966 208.190002 201.880005 213.170013 192.589966 C 214.160004 190.73999 214.109985 190.25 212.600006 187.140015 C 211.130005 184.119995 211.049988 183.440002 211.890015 181.299988 C 212.410004 179.960022 212.980011 178.219971 213.149994 177.419983 C 213.649994 175.130005 215.190002 174.02002 219.359985 172.910034 C 223.209991 171.900024 223.220001 171.900024 223.079987 173.640015 C 223 174.609985 222.700012 175.25 222.420013 175.070007 C 222.140015 174.900024 221.109985 175.429993 220.140015 176.26001 C 218.910004 177.299988 218.769989 177.619995 219.690002 177.289978 C 220.640015 176.960022 220.899994 177.140015 220.600006 177.910034 C 220 179.469971 221.339996 179.570007 232.720001 178.880005 C 239.01001 178.5 240.51001 178.619995 241.469971 179.589966 C 242.469971 180.589966 242.789978 180.599976 243.690002 179.700012 C 244.469971 178.929993 245.570007 178.809998 247.969971 179.23999 C 249.75 179.570007 252.23999 179.539978 253.5 179.179993 C 254.76001 178.809998 256.98999 178.549988 258.460022 178.599976 C 262.609985 178.719971 265.039978 177.429993 265.619995 174.799988 C 266.27002 171.820007 267.940002 171.849976 268.530029 174.839966 C 269.710022 180.72998 268.22998 195.910034 265.559998 205.330017 C 257.039978 235.440002 231.640015 260.5 201.880005 268.190002 C 192.589996 270.589996 177.799988 271.269989 169.5 269.690002 Z M 237.22998 232.669983 C 237.809998 232.299988 237.119995 230.469971 235.070007 226.880005 C 233.410004 223.98999 231.209991 220.109985 230.160004 218.25 C 229.119995 216.390015 227.51001 213.679993 226.600006 212.219971 C 225.679993 210.77002 223.839996 207.390015 222.51001 204.719971 C 218.410004 196.549988 218.649994 196.599976 212.880005 202.460022 C 210.119995 205.25 206.440002 208.27002 204.690002 209.160034 C 202.929993 210.049988 201.5 211.030029 201.5 211.339966 C 201.5 211.640015 203.859985 215.940002 206.76001 220.880005 C 209.640015 225.820007 212.190002 230.440002 212.420013 231.140015 C 212.640015 231.830017 213.570007 232.549988 214.470001 232.72998 C 217.380005 233.289978 236.350006 233.25 237.22998 232.669983 Z M 109.040009 235.690002 C 101.630005 225.97998 95.690002 213.559998 93.179993 202.48999 C 90.429993 190.450012 90 169.5 92.48999 169.5 C 93.140015 169.5 93.5 170.410034 93.5 172.030029 C 93.5 173.419983 93.75 175.700012 94.059998 177.089966 C 94.609985 179.570007 94.619995 179.549988 95 175.880005 C 95.380005 172.140015 95.380005 172.119995 98.079987 172.119995 C 99.549988 172.119995 101.339996 171.650024 102.029999 171.080017 C 103.109985 170.179993 103.230011 170.190002 102.859985 171.140015 C 102.119995 173.059998 107.450012 174.77002 117.5 175.880005 C 118.940002 176.030029 121.98999 176.5 124.25 176.900024 C 131.540009 178.210022 138.049988 177.940002 140.190002 176.27002 L 142.079987 174.780029 L 143.660004 178.460022 C 144.540009 180.5 145.25 182.530029 145.25 182.98999 C 145.25 183.450012 143.059998 187.919983 140.380005 192.919983 C 137.690002 197.919983 135.5 202.080017 135.5 202.169983 C 135.5 202.25 138.049988 201.049988 141.170013 199.47998 C 144.290009 197.910034 150.269989 195.570007 154.480011 194.280029 C 158.679993 192.97998 162.910004 191.52002 163.869995 191.02002 C 164.899994 190.48999 167.980011 185.97998 171.369995 180.049988 C 174.540009 174.5 177.51001 169.839966 177.970001 169.700012 C 178.440002 169.549988 180.470001 172.359985 182.470001 175.940002 C 184.480011 179.51001 186.600006 182.619995 187.170013 182.839966 C 188.220001 183.25 193.660004 178.089966 195.299988 175.140015 C 196.109985 173.690002 196.170013 173.690002 197.670013 175.049988 C 198.579987 175.869995 199.820007 176.27002 200.730011 176.039978 C 203.01001 175.440002 202.619995 176.98999 199.339996 181.570007 C 193.890015 189.179993 185.820007 193.390015 169.130005 197.309998 C 163.619995 198.599976 156.940002 200.339966 154.25 201.160034 C 145.070007 204.01001 133.040009 210.820007 129.140015 215.390015 C 124.290009 221.070007 119.579987 228.309998 115.700012 236.059998 C 114.609985 238.22998 113.410004 240 113.029999 240 C 112.649994 240 110.859985 238.059998 109.040009 235.690002 Z M 152 168.400024 C 152 167.059998 152.309998 166.660034 153.119995 166.97998 C 154.410004 167.469971 154.410004 167.469971 153.790009 169.059998 C 153.089996 170.880005 152 170.47998 152 168.400024 Z M 212.73999 146.580017 C 212.209991 145.200012 212.279999 144.109985 213 142.73999 C 213.970001 140.900024 214.01001 140.98999 214.140015 144.669983 C 214.290009 148.900024 213.850006 149.5 212.73999 146.580017 Z M 217.059998 140.410034 C 216.339996 140.26001 215.75 139.839966 215.75 139.469971 C 215.75 138.530029 218.440002 137.190002 219.059998 137.809998 C 219.350006 138.099976 219.329987 137.690002 219.029999 136.919983 C 218.700012 136.030029 218.779999 135.679993 219.26001 135.969971 C 219.690002 136.23999 220.440002 135.549988 220.950012 134.440002 C 221.730011 132.72998 221.670013 132.299988 220.540009 131.469971 C 219.149994 130.450012 210.480011 130.339966 208.890015 131.320007 C 208.399994 131.619995 207.220001 131.359985 206.279999 130.73999 C 204.700012 129.710022 204.359985 129.75 202.380005 131.160034 C 201.190002 132.01001 200.040009 132.539978 199.829987 132.330017 C 198.799988 131.299988 196.200012 131.460022 195.480011 132.609985 C 194.829987 133.640015 194.76001 133.549988 195.170013 132.089966 C 195.5 130.880005 195.390015 130.47998 194.829987 130.820007 C 194.380005 131.109985 194 130.969971 194 130.51001 C 194 129.950012 193.570007 129.929993 192.619995 130.429993 C 190.720001 131.450012 187.799988 130.609985 188.339996 129.200012 C 188.570007 128.589966 188.170013 126.440002 187.440002 124.390015 C 186.48999 121.700012 185.640015 120.559998 184.359985 120.23999 C 183.309998 119.97998 182.350006 120.179993 182 120.73999 C 181.589996 121.400024 180.019989 121.589966 176.820007 121.359985 C 172.399994 121.039978 172.140015 121.119995 170.470001 123.320007 C 169.5 124.589966 168.480011 126.469971 168.190002 127.5 C 167.799988 128.880005 167.859985 129.080017 168.410004 128.27002 C 168.829987 127.660034 169.350006 127.349976 169.559998 127.570007 C 170.279999 128.280029 167.670013 131.299988 166.809998 130.76001 C 165.589996 130 161.75 129.880005 161.75 130.609985 C 161.75 130.940002 160.910004 131.429993 159.880005 131.690002 C 158.859985 131.950012 158.190002 132.450012 158.410004 132.799988 C 159.040009 133.839966 154.420013 131.98999 153.450012 130.809998 C 152.149994 129.25 151.220001 129.48999 148.519989 132.099976 C 146.279999 134.27002 146 134.359985 144.869995 133.22998 C 144.079987 132.440002 143.200012 132.210022 142.380005 132.599976 C 141.690002 132.919983 139.100006 133.099976 136.619995 133 C 134.149994 132.890015 130.690002 133.169983 128.940002 133.619995 C 126.880005 134.150024 125.429993 134.190002 124.820007 133.719971 C 124.299988 133.320007 122.380005 132.919983 120.570007 132.830017 C 117.690002 132.700012 117.380005 132.820007 118.200012 133.809998 C 118.720001 134.429993 119.779999 135.150024 120.570007 135.400024 C 121.359985 135.640015 122 136.160034 122 136.539978 C 122 137.469971 113.790009 136.839966 112.769989 135.820007 C 111.720001 134.77002 108.5 134.75 108.5 135.799988 C 108.5 136.22998 108.190002 136.390015 107.799988 136.160034 C 107.420013 135.919983 106.959991 136.660034 106.790009 137.799988 C 106.529999 139.450012 106.450012 139.299988 106.359985 137.02002 C 106.299988 135.330017 105.940002 134.349976 105.5 134.619995 C 105.089996 134.880005 104.75 134.880005 104.75 134.619995 C 104.75 133.839966 109.200012 127.619995 110.179993 127.01001 C 110.679993 126.700012 110.339996 127.410034 109.420013 128.589966 C 107.519989 131 107.790009 132.130005 109.809998 130.299988 C 111.269989 128.97998 115.01001 127.299988 116.75 127.190002 C 118.140015 127.109985 118.660004 124.030029 117.519989 122.650024 C 116.970001 121.98999 116.940002 121.469971 117.420013 121.169983 C 117.839996 120.910034 118.929993 119.619995 119.850006 118.289978 L 121.519989 115.880005 L 119.320007 117.72998 C 118.119995 118.76001 118.640015 117.969971 120.5 116 C 124.200012 112.030029 133.329987 105.679993 140.380005 102.160034 C 157.130005 93.799988 176.76001 91.070007 196.040009 94.429993 C 204.709991 95.940002 218.070007 100.660034 222.859985 103.910034 C 224.350006 104.929993 225.720001 105.75 225.899994 105.75 C 226.640015 105.75 234.369995 111.5 238.950012 115.450012 C 244.01001 119.820007 252.5 129.910034 252.5 131.559998 C 252.5 132.799988 249.859985 135.859985 249.289978 135.280029 C 248.530029 134.530029 242.77002 135.830017 241.580017 137.030029 C 240.570007 138.039978 236.209991 139.549988 234.119995 139.609985 C 233.709991 139.630005 231.76001 139.309998 229.799988 138.910034 C 227.190002 138.380005 225.459991 138.450012 223.420013 139.150024 C 221.549988 139.789978 220.470001 139.849976 220.149994 139.339966 C 219.850006 138.859985 219.429993 138.969971 219.029999 139.630005 C 218.670013 140.219971 217.779999 140.570007 217.059998 140.410034 Z M 169.5 269.690002 C 153.950012 266.720001 144.850006 261.359985 140.119995 252.380005 C 138.440002 249.190002 138.149994 247.669983 138.130005 242.25 C 138.119995 236.679993 138.380005 235.450012 140.130005 232.450012 C 144.880005 224.380005 153.459991 219.179993 168.910004 215.02002 C 197.420013 207.339966 208.190002 201.880005 213.170013 192.589966 C 214.160004 190.73999 214.109985 190.25 212.600006 187.140015 C 211.130005 184.119995 211.049988 183.440002 211.890015 181.299988 C 212.410004 179.960022 212.980011 178.219971 213.149994 177.419983 C 213.649994 175.130005 215.190002 174.02002 219.359985 172.910034 C 223.209991 171.900024 223.220001 171.900024 223.079987 173.640015 C 223 174.609985 222.700012 175.25 222.420013 175.070007 C 222.140015 174.900024 221.109985 175.429993 220.140015 176.26001 C 218.910004 177.299988 218.769989 177.619995 219.690002 177.289978 C 220.640015 176.960022 220.899994 177.140015 220.600006 177.910034 C 220 179.469971 221.339996 179.570007 232.720001 178.880005 C 239.01001 178.5 240.51001 178.619995 241.469971 179.589966 C 242.469971 180.589966 242.789978 180.599976 243.690002 179.700012 C 244.469971 178.929993 245.570007 178.809998 247.969971 179.23999 C 249.75 179.570007 252.23999 179.539978 253.5 179.179993 C 254.76001 178.809998 256.98999 178.549988 258.460022 178.599976 C 262.609985 178.719971 265.039978 177.429993 265.619995 174.799988 C 266.27002 171.820007 267.940002 171.849976 268.530029 174.839966 C 269.710022 180.72998 268.22998 195.910034 265.559998 205.330017 C 257.039978 235.440002 231.640015 260.5 201.880005 268.190002 C 192.589996 270.589996 177.799988 271.269989 169.5 269.690002 Z M 237.22998 232.669983 C 237.809998 232.299988 237.119995 230.469971 235.070007 226.880005 C 233.410004 223.98999 231.209991 220.109985 230.160004 218.25 C 229.119995 216.390015 227.51001 213.679993 226.600006 212.219971 C 225.679993 210.77002 223.839996 207.390015 222.51001 204.719971 C 218.410004 196.549988 218.649994 196.599976 212.880005 202.460022 C 210.119995 205.25 206.440002 208.27002 204.690002 209.160034 C 202.929993 210.049988 201.5 211.030029 201.5 211.339966 C 201.5 211.640015 203.859985 215.940002 206.76001 220.880005 C 209.640015 225.820007 212.190002 230.440002 212.420013 231.140015 C 212.640015 231.830017 213.570007 232.549988 214.470001 232.72998 C 217.380005 233.289978 236.350006 233.25 237.22998 232.669983 Z M 109.040009 235.690002 C 101.630005 225.97998 95.690002 213.559998 93.179993 202.48999 C 90.429993 190.450012 90 169.5 92.48999 169.5 C 93.140015 169.5 93.5 170.410034 93.5 172.030029 C 93.5 173.419983 93.75 175.700012 94.059998 177.089966 C 94.609985 179.570007 94.619995 179.549988 95 175.880005 C 95.380005 172.140015 95.380005 172.119995 98.079987 172.119995 C 99.549988 172.119995 101.339996 171.650024 102.029999 171.080017 C 103.109985 170.179993 103.230011 170.190002 102.859985 171.140015 C 102.119995 173.059998 107.450012 174.77002 117.5 175.880005 C 118.940002 176.030029 121.98999 176.5 124.25 176.900024 C 131.540009 178.210022 138.049988 177.940002 140.190002 176.27002 L 142.079987 174.780029 L 143.660004 178.460022 C 144.540009 180.5 145.25 182.530029 145.25 182.98999 C 145.25 183.450012 143.059998 187.919983 140.380005 192.919983 C 137.690002 197.919983 135.5 202.080017 135.5 202.169983 C 135.5 202.25 138.049988 201.049988 141.170013 199.47998 C 144.290009 197.910034 150.269989 195.570007 154.480011 194.280029 C 158.679993 192.97998 162.910004 191.52002 163.869995 191.02002 C 164.899994 190.48999 167.980011 185.97998 171.369995 180.049988 C 174.540009 174.5 177.51001 169.839966 177.970001 169.700012 C 178.440002 169.549988 180.470001 172.359985 182.470001 175.940002 C 184.480011 179.51001 186.600006 182.619995 187.170013 182.839966 C 188.220001 183.25 193.660004 178.089966 195.299988 175.140015 C 196.109985 173.690002 196.170013 173.690002 197.670013 175.049988 C 198.579987 175.869995 199.820007 176.27002 200.730011 176.039978 C 203.01001 175.440002 202.619995 176.98999 199.339996 181.570007 C 193.890015 189.179993 185.820007 193.390015 169.130005 197.309998 C 163.619995 198.599976 156.940002 200.339966 154.25 201.160034 C 145.070007 204.01001 133.040009 210.820007 129.140015 215.390015 C 124.290009 221.070007 119.579987 228.309998 115.700012 236.059998 C 114.609985 238.22998 113.410004 240 113.029999 240 C 112.649994 240 110.859985 238.059998 109.040009 235.690002 Z M 152 168.400024 C 152 167.059998 152.309998 166.660034 153.119995 166.97998 C 154.410004 167.469971 154.410004 167.469971 153.790009 169.059998 C 153.089996 170.880005 152 170.47998 152 168.400024 Z M 212.73999 146.580017 C 212.209991 145.200012 212.279999 144.109985 213 142.73999 C 213.970001 140.900024 214.01001 140.98999 214.140015 144.669983 C 214.290009 148.900024 213.850006 149.5 212.73999 146.580017 Z M 217.059998 140.410034 C 216.339996 140.26001 215.75 139.839966 215.75 139.469971 C 215.75 138.530029 218.440002 137.190002 219.059998 137.809998 C 219.350006 138.099976 219.329987 137.690002 219.029999 136.919983 C 218.700012 136.030029 218.779999 135.679993 219.26001 135.969971 C 219.690002 136.23999 220.440002 135.549988 220.950012 134.440002 C 221.730011 132.72998 221.670013 132.299988 220.540009 131.469971 C 219.149994 130.450012 210.480011 130.339966 208.890015 131.320007 C 208.399994 131.619995 207.220001 131.359985 206.279999 130.73999 C 204.700012 129.710022 204.359985 129.75 202.380005 131.160034 C 201.190002 132.01001 200.040009 132.539978 199.829987 132.330017 C 198.799988 131.299988 196.200012 131.460022 195.480011 132.609985 C 194.829987 133.640015 194.76001 133.549988 195.170013 132.089966 C 195.5 130.880005 195.390015 130.47998 194.829987 130.820007 C 194.380005 131.109985 194 130.969971 194 130.51001 C 194 129.950012 193.570007 129.929993 192.619995 130.429993 C 190.720001 131.450012 187.799988 130.609985 188.339996 129.200012 C 188.570007 128.589966 188.170013 126.440002 187.440002 124.390015 C 186.48999 121.700012 185.640015 120.559998 184.359985 120.23999 C 183.309998 119.97998 182.350006 120.179993 182 120.73999 C 181.589996 121.400024 180.019989 121.589966 176.820007 121.359985 C 172.399994 121.039978 172.140015 121.119995 170.470001 123.320007 C 169.5 124.589966 168.480011 126.469971 168.190002 127.5 C 167.799988 128.880005 167.859985 129.080017 168.410004 128.27002 C 168.829987 127.660034 169.350006 127.349976 169.559998 127.570007 C 170.279999 128.280029 167.670013 131.299988 166.809998 130.76001 C 165.589996 130 161.75 129.880005 161.75 130.609985 C 161.75 130.940002 160.910004 131.429993 159.880005 131.690002 C 158.859985 131.950012 158.190002 132.450012 158.410004 132.799988 C 159.040009 133.839966 154.420013 131.98999 153.450012 130.809998 C 152.149994 129.25 151.220001 129.48999 148.519989 132.099976 C 146.279999 134.27002 146 134.359985 144.869995 133.22998 C 144.079987 132.440002 143.200012 132.210022 142.380005 132.599976 C 141.690002 132.919983 139.100006 133.099976 136.619995 133 C 134.149994 132.890015 130.690002 133.169983 128.940002 133.619995 C 126.880005 134.150024 125.429993 134.190002 124.820007 133.719971 C 124.299988 133.320007 122.380005 132.919983 120.570007 132.830017 C 117.690002 132.700012 117.380005 132.820007 118.200012 133.809998 C 118.720001 134.429993 119.779999 135.150024 120.570007 135.400024 C 121.359985 135.640015 122 136.160034 122 136.539978 C 122 137.469971 113.790009 136.839966 112.769989 135.820007 C 111.720001 134.77002 108.5 134.75 108.5 135.799988 C 108.5 136.22998 108.190002 136.390015 107.799988 136.160034 C 107.420013 135.919983 106.959991 136.660034 106.790009 137.799988 C 106.529999 139.450012 106.450012 139.299988 106.359985 137.02002 C 106.299988 135.330017 105.940002 134.349976 105.5 134.619995 C 105.089996 134.880005 104.75 134.880005 104.75 134.619995 C 104.75 133.839966 109.200012 127.619995 110.179993 127.01001 C 110.679993 126.700012 110.339996 127.410034 109.420013 128.589966 C 107.519989 131 107.790009 132.130005 109.809998 130.299988 C 111.269989 128.97998 115.01001 127.299988 116.75 127.190002 C 118.140015 127.109985 118.660004 124.030029 117.519989 122.650024 C 116.970001 121.98999 116.940002 121.469971 117.420013 121.169983 C 117.839996 120.910034 118.929993 119.619995 119.850006 118.289978 L 121.519989 115.880005 L 119.320007 117.72998 C 118.119995 118.76001 118.640015 117.969971 120.5 116 C 124.200012 112.030029 133.329987 105.679993 140.380005 102.160034 C 157.130005 93.799988 176.76001 91.070007 196.040009 94.429993 C 204.709991 95.940002 218.070007 100.660034 222.859985 103.910034 C 224.350006 104.929993 225.720001 105.75 225.899994 105.75 C 226.640015 105.75 234.369995 111.5 238.950012 115.450012 C 244.01001 119.820007 252.5 129.910034 252.5 131.559998 C 252.5 132.799988 249.859985 135.859985 249.289978 135.280029 C 248.530029 134.530029 242.77002 135.830017 241.580017 137.030029 C 240.570007 138.039978 236.209991 139.549988 234.119995 139.609985 C 233.709991 139.630005 231.76001 139.309998 229.799988 138.910034 C 227.190002 138.380005 225.459991 138.450012 223.420013 139.150024 C 221.549988 139.789978 220.470001 139.849976 220.149994 139.339966 C 219.850006 138.859985 219.429993 138.969971 219.029999 139.630005 C 218.670013 140.219971 217.779999 140.570007 217.059998 140.410034 Z M 169.5 269.690002 C 153.950012 266.720001 144.850006 261.359985 140.119995 252.380005 C 138.440002 249.190002 138.149994 247.669983 138.130005 242.25 C 138.119995 236.649994 138.369995 235.450012 140.170013 232.400024 C 142.859985 227.830017 149.619995 221.700012 150.839996 222.719971 C 151.339996 223.130005 152.390015 223.570007 153.190002 223.690002 C 153.980011 223.809998 154.959991 224.119995 155.380005 224.359985 C 155.790009 224.609985 156.790009 224.570007 157.609985 224.27002 C 158.420013 223.97998 160.440002 224.049988 162.109985 224.419983 C 163.769989 224.799988 166.929993 224.890015 169.140015 224.619995 C 175.059998 223.890015 182.880005 224.080017 183.769989 224.969971 C 184.920013 226.119995 189.329987 225.910034 190.019989 224.690002 C 190.359985 224.099976 191.519989 223.400024 192.609985 223.119995 C 194.160004 222.72998 194.980011 223.059998 196.470001 224.660034 C 198.809998 227.200012 201.450012 226.77002 204.670013 223.320007 C 207.160004 220.660034 206.820007 220.410034 210.660004 227.75 C 212.589996 231.440002 213.51001 232.460022 215.25 232.809998 C 218.109985 233.380005 235.540009 233.380005 237.030029 232.809998 C 238 232.429993 237.809998 231.679993 235.839996 228.119995 C 234.540009 225.789978 232.899994 223.030029 232.200012 222 L 230.910004 220.119995 L 233.809998 220.190002 C 236.130005 220.22998 237.219971 220.780029 239.299988 222.98999 C 240.969971 224.77002 242.309998 225.589966 243.070007 225.289978 C 243.719971 225.049988 244.25 225.190002 244.25 225.640015 C 244.25 226.549988 248.909973 227.98999 251.890015 227.98999 C 253 228 254.119995 228.339966 254.380005 228.73999 C 255.109985 229.940002 248.210022 238.98999 241.650024 245.440002 C 230.920013 255.98999 215.940002 264.559998 201.880005 268.190002 C 192.589996 270.589996 177.799988 271.269989 169.5 269.690002 Z M 109.040009 235.690002 C 102.970001 227.73999 95.929993 214.660034 98.140015 215.440002 C 98.679993 215.630005 99.089996 216.25 99.049988 216.830017 C 99 217.469971 99.839996 217.940002 101.190002 218.039978 C 103.549988 218.210022 105.709991 219.549988 105.140015 220.469971 C 104.950012 220.780029 106.829987 221.640015 109.309998 222.390015 C 111.790009 223.150024 114.019989 224.080017 114.25 224.460022 C 114.48999 224.839966 114.980011 224.710022 115.329987 224.150024 C 115.829987 223.339966 115.980011 223.400024 115.98999 224.410034 C 115.98999 225.25 116.399994 225.549988 117.119995 225.280029 C 117.839996 225 118.480011 225.5 118.940002 226.710022 C 119.519989 228.23999 119.109985 229.599976 116.649994 234.280029 C 115.01001 237.429993 113.359985 240 113 240 C 112.630005 240 110.859985 238.059998 109.040009 235.690002 Z M 119.920013 223.109985 C 119.140015 222.22998 119.209991 221.780029 120.299988 220.679993 C 121.019989 219.940002 122.079987 218.440002 122.640015 217.369995 C 123.75 215.23999 127.720001 213.919983 129.040009 215.23999 C 129.519989 215.719971 129.529999 216 129.059998 216 C 128.660004 216 126.98999 217.849976 125.350006 220.119995 C 122.220001 224.460022 121.480011 224.869995 119.920013 223.109985 Z M 259.25 217.5 C 259.25 216.669983 259.75 216 260.380005 216 C 261.630005 216 261.690002 216.130005 261.039978 217.809998 C 260.400024 219.48999 259.25 219.280029 259.25 217.5 Z M 152 168.400024 C 152 167.059998 152.309998 166.660034 153.119995 166.97998 C 154.410004 167.469971 154.410004 167.469971 153.790009 169.059998 C 153.089996 170.880005 152 170.47998 152 168.400024 Z M 212.73999 146.580017 C 212.209991 145.200012 212.279999 144.109985 213 142.73999 C 213.970001 140.900024 214.01001 140.98999 214.140015 144.669983 C 214.290009 148.900024 213.850006 149.5 212.73999 146.580017 Z M 217.059998 140.410034 C 216.339996 140.26001 215.75 139.839966 215.75 139.469971 C 215.75 138.530029 218.440002 137.190002 219.059998 137.809998 C 219.350006 138.099976 219.329987 137.690002 219.029999 136.919983 C 218.700012 136.030029 218.779999 135.679993 219.26001 135.969971 C 219.690002 136.23999 220.440002 135.549988 220.950012 134.440002 C 221.730011 132.72998 221.670013 132.299988 220.540009 131.469971 C 219.149994 130.450012 210.480011 130.339966 208.890015 131.320007 C 208.399994 131.619995 207.220001 131.359985 206.279999 130.73999 C 204.700012 129.710022 204.359985 129.75 202.380005 131.160034 C 201.190002 132.01001 200.040009 132.539978 199.829987 132.330017 C 198.799988 131.299988 196.200012 131.460022 195.480011 132.609985 C 194.829987 133.640015 194.76001 133.549988 195.170013 132.089966 C 195.5 130.880005 195.390015 130.47998 194.829987 130.820007 C 194.380005 131.109985 194 130.969971 194 130.51001 C 194 129.950012 193.570007 129.929993 192.619995 130.429993 C 190.720001 131.450012 187.799988 130.609985 188.339996 129.200012 C 188.570007 128.589966 188.170013 126.440002 187.440002 124.390015 C 186.48999 121.700012 185.640015 120.559998 184.359985 120.23999 C 183.309998 119.97998 182.350006 120.179993 182 120.73999 C 181.589996 121.400024 180.019989 121.589966 176.820007 121.359985 C 172.399994 121.039978 172.140015 121.119995 170.470001 123.320007 C 169.5 124.589966 168.480011 126.469971 168.190002 127.5 C 167.799988 128.880005 167.859985 129.080017 168.410004 128.27002 C 168.829987 127.660034 169.350006 127.349976 169.559998 127.570007 C 170.279999 128.280029 167.670013 131.299988 166.809998 130.76001 C 165.589996 130 161.75 129.880005 161.75 130.609985 C 161.75 130.940002 160.910004 131.429993 159.880005 131.690002 C 158.859985 131.950012 158.190002 132.450012 158.410004 132.799988 C 159.040009 133.839966 154.420013 131.98999 153.450012 130.809998 C 152.149994 129.25 151.220001 129.48999 148.519989 132.099976 C 146.279999 134.27002 146 134.359985 144.869995 133.22998 C 144.079987 132.440002 143.200012 132.210022 142.380005 132.599976 C 141.690002 132.919983 139.100006 133.099976 136.619995 133 C 134.149994 132.890015 130.690002 133.169983 128.940002 133.619995 C 126.880005 134.150024 125.429993 134.190002 124.820007 133.719971 C 124.299988 133.320007 122.380005 132.919983 120.570007 132.830017 C 117.690002 132.700012 117.380005 132.820007 118.200012 133.809998 C 118.720001 134.429993 119.779999 135.150024 120.570007 135.400024 C 121.359985 135.640015 122 136.160034 122 136.539978 C 122 137.469971 113.790009 136.839966 112.769989 135.820007 C 111.720001 134.77002 108.5 134.75 108.5 135.799988 C 108.5 136.22998 108.190002 136.390015 107.799988 136.160034 C 107.420013 135.919983 106.959991 136.660034 106.790009 137.799988 C 106.529999 139.450012 106.450012 139.299988 106.359985 137.02002 C 106.299988 135.330017 105.940002 134.349976 105.5 134.619995 C 105.089996 134.880005 104.75 134.880005 104.75 134.619995 C 104.75 133.839966 109.200012 127.619995 110.179993 127.01001 C 110.679993 126.700012 110.339996 127.410034 109.420013 128.589966 C 107.519989 131 107.790009 132.130005 109.809998 130.299988 C 111.269989 128.97998 115.01001 127.299988 116.75 127.190002 C 118.140015 127.109985 118.660004 124.030029 117.519989 122.650024 C 116.970001 121.98999 116.940002 121.469971 117.420013 121.169983 C 117.839996 120.910034 118.929993 119.619995 119.850006 118.289978 L 121.519989 115.880005 L 119.320007 117.72998 C 118.119995 118.76001 118.640015 117.969971 120.5 116 C 124.200012 112.030029 133.329987 105.679993 140.380005 102.160034 C 157.130005 93.799988 176.76001 91.070007 196.040009 94.429993 C 204.709991 95.940002 218.070007 100.660034 222.859985 103.910034 C 224.350006 104.929993 225.720001 105.75 225.899994 105.75 C 226.640015 105.75 234.369995 111.5 238.950012 115.450012 C 244.01001 119.820007 252.5 129.910034 252.5 131.559998 C 252.5 132.799988 249.859985 135.859985 249.289978 135.280029 C 248.530029 134.530029 242.77002 135.830017 241.580017 137.030029 C 240.570007 138.039978 236.209991 139.549988 234.119995 139.609985 C 233.709991 139.630005 231.76001 139.309998 229.799988 138.910034 C 227.190002 138.380005 225.459991 138.450012 223.420013 139.150024 C 221.549988 139.789978 220.470001 139.849976 220.149994 139.339966 C 219.850006 138.859985 219.429993 138.969971 219.029999 139.630005 C 218.670013 140.219971 217.779999 140.570007 217.059998 140.410034 Z M 169.5 269.690002 C 153.950012 266.720001 144.850006 261.359985 140.119995 252.380005 C 138.440002 249.190002 138.149994 247.669983 138.130005 242.25 C 138.119995 236.649994 138.369995 235.450012 140.170013 232.400024 C 142.859985 227.830017 149.619995 221.700012 150.839996 222.719971 C 151.339996 223.130005 152.390015 223.570007 153.190002 223.690002 C 153.980011 223.809998 154.959991 224.119995 155.380005 224.359985 C 155.790009 224.609985 156.790009 224.570007 157.609985 224.27002 C 158.420013 223.97998 160.440002 224.049988 162.109985 224.419983 C 163.769989 224.799988 166.929993 224.890015 169.140015 224.619995 C 175.059998 223.890015 182.880005 224.080017 183.769989 224.969971 C 184.920013 226.119995 189.329987 225.910034 190.019989 224.690002 C 190.359985 224.099976 191.519989 223.400024 192.609985 223.119995 C 194.160004 222.72998 194.980011 223.059998 196.470001 224.660034 C 198.809998 227.200012 201.450012 226.77002 204.670013 223.320007 C 207.160004 220.660034 206.820007 220.410034 210.660004 227.75 C 212.589996 231.440002 213.51001 232.460022 215.25 232.809998 C 218.109985 233.380005 235.540009 233.380005 237.030029 232.809998 C 238 232.429993 237.809998 231.679993 235.839996 228.119995 C 234.540009 225.789978 232.899994 223.030029 232.200012 222 L 230.910004 220.119995 L 233.809998 220.190002 C 236.130005 220.22998 237.219971 220.780029 239.299988 222.98999 C 240.969971 224.77002 242.309998 225.589966 243.070007 225.289978 C 243.719971 225.049988 244.25 225.190002 244.25 225.640015 C 244.25 226.549988 248.909973 227.98999 251.890015 227.98999 C 253 228 254.119995 228.339966 254.380005 228.73999 C 255.109985 229.940002 248.210022 238.98999 241.650024 245.440002 C 230.920013 255.98999 215.940002 264.559998 201.880005 268.190002 C 192.589996 270.589996 177.799988 271.269989 169.5 269.690002 Z M 109.040009 235.690002 C 102.970001 227.73999 95.929993 214.660034 98.140015 215.440002 C 98.679993 215.630005 99.089996 216.25 99.049988 216.830017 C 99 217.469971 99.839996 217.940002 101.190002 218.039978 C 103.549988 218.210022 105.709991 219.549988 105.140015 220.469971 C 104.950012 220.780029 106.829987 221.640015 109.309998 222.390015 C 111.790009 223.150024 114.019989 224.080017 114.25 224.460022 C 114.48999 224.839966 114.980011 224.710022 115.329987 224.150024 C 115.829987 223.339966 115.980011 223.400024 115.98999 224.410034 C 115.98999 225.25 116.399994 225.549988 117.119995 225.280029 C 117.839996 225 118.480011 225.5 118.940002 226.710022 C 119.519989 228.23999 119.109985 229.599976 116.649994 234.280029 C 115.01001 237.429993 113.359985 240 113 240 C 112.630005 240 110.859985 238.059998 109.040009 235.690002 Z M 119.920013 223.109985 C 119.140015 222.22998 119.209991 221.780029 120.299988 220.679993 C 121.019989 219.940002 122.079987 218.440002 122.640015 217.369995 C 123.75 215.23999 127.720001 213.919983 129.040009 215.23999 C 129.519989 215.719971 129.529999 216 129.059998 216 C 128.660004 216 126.98999 217.849976 125.350006 220.119995 C 122.220001 224.460022 121.480011 224.869995 119.920013 223.109985 Z M 259.25 217.5 C 259.25 216.669983 259.75 216 260.380005 216 C 261.630005 216 261.690002 216.130005 261.039978 217.809998 C 260.400024 219.48999 259.25 219.280029 259.25 217.5 Z M 152 168.400024 C 152 167.059998 152.309998 166.660034 153.119995 166.97998 C 154.410004 167.469971 154.410004 167.469971 153.790009 169.059998 C 153.089996 170.880005 152 170.47998 152 168.400024 Z M 152 168.400024 C 152 167.059998 152.309998 166.660034 153.119995 166.97998 C 154.410004 167.469971 154.410004 167.469971 153.790009 169.059998 C 153.089996 170.880005 152 170.47998 152 168.400024 Z" /></g>
</svg>