<?xml version='1.0' encoding='utf-8'?>
<svg xmlns="http://www.w3.org/2000/svg" width="620" height="680" viewBox="0 0 620 680"><rect width="620" height="680" fill="#e5e5e5" /><rect x="20" y="20" width="280" height="280" rx="8" fill="#FFFFFF" /><g transform="translate(66.16,39.94) scale(0.69)"><path fill="#0A2540" d="M1 237 L62 272 L61 348 L0 312 Z M98 257 L132 275 L132 312 L71 347 L70 272 Z M202 168 L201 230 L141 264 L142 202 Z M70 169 L132 203 L132 264 L70 230 Z M70 241 L90 251 L70 262 Z M3 129 L63 164 L61 262 L1 227 Z M137 125 L196 160 L137 195 L78 160 Z M271 44 L272 119 L211 154 L210 79 Z M132 43 L132 118 L71 153 L70 78 Z M142 43 L202 77 L201 152 L141 118 Z M1 44 L62 78 L62 152 L1 118 Z M206 0 L266 36 L206 72 L146 36 Z M66 1 L126 36 L66 71 L6 36 Z" /></g><rect x="320" y="20" width="280" height="280" rx="8" fill="#1a1f2e" /><g transform="translate(366.16,39.94) scale(0.69)"><path fill="#67b2d7" d="M1 237 L62 272 L61 348 L0 312 Z M98 257 L132 275 L132 312 L71 347 L70 272 Z M202 168 L201 230 L141 264 L142 202 Z M70 169 L132 203 L132 264 L70 230 Z M70 241 L90 251 L70 262 Z M3 129 L63 164 L61 262 L1 227 Z M137 125 L196 160 L137 195 L78 160 Z M271 44 L272 119 L211 154 L210 79 Z M132 43 L132 118 L71 153 L70 78 Z M142 43 L202 77 L201 152 L141 118 Z M1 44 L62 78 L62 152 L1 118 Z M206 0 L266 36 L206 72 L146 36 Z M66 1 L126 36 L66 71 L6 36 Z" /></g><rect x="20" y="350" width="280" height="280" rx="8" fill="#f5f0e8" /><g transform="translate(66.16,369.94) scale(0.69)"><path fill="#2d2d2d" d="M1 237 L62 272 L61 348 L0 312 Z M98 257 L132 275 L132 312 L71 347 L70 272 Z M202 168 L201 230 L141 264 L142 202 Z M70 169 L132 203 L132 264 L70 230 Z M70 241 L90 251 L70 262 Z M3 129 L63 164 L61 262 L1 227 Z M137 125 L196 160 L137 195 L78 160 Z M271 44 L272 119 L211 154 L210 79 Z M132 43 L132 118 L71 153 L70 78 Z M142 43 L202 77 L201 152 L141 118 Z M1 44 L62 78 L62 152 L1 118 Z M206 0 L266 36 L206 72 L146 36 Z M66 1 L126 36 L66 71 L6 36 Z" /></g><rect x="320" y="350" width="280" height="280" rx="8" fill="#0f1729" /><g transform="translate(366.16,369.94) scale(0.69)"><path fill="#e8edf3" d="M1 237 L62 272 L61 348 L0 312 Z M98 257 L132 275 L132 312 L71 347 L70 272 Z M202 168 L201 230 L141 264 L142 202 Z M70 169 L132 203 L132 264 L70 230 Z M70 241 L90 251 L70 262 Z M3 129 L63 164 L61 262 L1 227 Z M137 125 L196 160 L137 195 L78 160 Z M271 44 L272 119 L211 154 L210 79 Z M132 43 L132 118 L71 153 L70 78 Z M142 43 L202 77 L201 152 L141 118 Z M1 44 L62 78 L62 152 L1 118 Z M206 0 L266 36 L206 72 L146 36 Z M66 1 L126 36 L66 71 L6 36 Z" /></g><text x="276" y="288" font-family="system-ui, Helvetica, sans-serif" font-size="13" font-weight="600" fill="#7b8da2" text-anchor="end">A</text><text x="576" y="288" font-family="system-ui, Helvetica, sans-serif" font-size="13" font-weight="600" fill="#7b8da2" text-anchor="end">B</text><text x="276" y="618" font-family="system-ui, Helvetica, sans-serif" font-size="13" font-weight="600" fill="#7b8da2" text-anchor="end">C</text><text x="576" y="618" font-family="system-ui, Helvetica, sans-serif" font-size="13" font-weight="600" fill="#7b8da2" text-anchor="end">D</text></svg>