<?xml version="1.0" encoding="UTF-8" standalone="no"?>
<!DOCTYPE svg PUBLIC "-//W3C//DTD SVG 1.1//EN"
 "http://www.w3.org/Graphics/SVG/1.1/DTD/svg11.dtd">
<!-- Generated by graphviz version 14.1.2 (20260124.0452)
 -->
<!-- Title: MyWorkflow Pages: 1 -->
<svg width="413pt" height="44pt"
 viewBox="0.00 0.00 413.00 44.00" xmlns="http://www.w3.org/2000/svg" xmlns:xlink="http://www.w3.org/1999/xlink">
<style>
  @media (prefers-color-scheme: dark) {
    [fill="#1a1a1a"] { fill: #e5e5e5; }
    [fill="#666666"] { fill: #aaaaaa; }
    [stroke="#666666"] { stroke: #aaaaaa; }
    [stroke="#999999"] { stroke: #777777; }
  }
</style>
<g id="graph0" class="graph" transform="scale(1 1) rotate(0) translate(4 40.25)">
<title>MyWorkflow</title>
<!-- start -->
<g id="node1" class="node">
<title>start</title>
<polygon fill="none" stroke="#357f9e" points="35.26,-36.12 0,-18.13 35.26,-0.13 70.52,-18.12 35.26,-36.12"/>
<polyline fill="none" stroke="#357f9e" points="10.69,-23.58 10.69,-12.67"/>
<polyline fill="none" stroke="#357f9e" points="24.57,-5.58 45.95,-5.58"/>
<polyline fill="none" stroke="#357f9e" points="59.83,-12.67 59.83,-23.58"/>
<polyline fill="none" stroke="#357f9e" points="45.95,-30.67 24.57,-30.67"/>
<text xml:space="preserve" text-anchor="middle" x="35.26" y="-13.1" font-family="Helvetica,sans-Serif" font-size="12.00" fill="#1a1a1a">Start</text>
</g>
<!-- scan -->
<g id="node3" class="node">
<title>scan</title>
<polygon fill="none" stroke="#357f9e" points="237.5,-36.12 133.32,-36.12 106.52,-0.13 210.7,-0.13 237.5,-36.12"/>
<text xml:space="preserve" text-anchor="middle" x="172.01" y="-13.1" font-family="Helvetica,sans-Serif" font-size="12.00" fill="#1a1a1a">Scan Files</text>
</g>
<!-- start&#45;&gt;scan -->
<g id="edge1" class="edge">
<title>start&#45;&gt;scan</title>
<path fill="none" stroke="#666666" d="M71.31,-18.12C82.54,-18.12 95.33,-18.12 107.92,-18.12"/>
<polygon fill="#666666" stroke="#666666" points="107.87,-21.63 117.87,-18.13 107.87,-14.63 107.87,-21.63"/>
</g>
<!-- exit -->
<g id="node2" class="node">
<title>exit</title>
<polygon fill="none" stroke="#357f9e" points="405.25,-36.25 369,-36.25 369,0 405.25,0 405.25,-36.25"/>
<polyline fill="none" stroke="#357f9e" points="381,-36.25 369,-24.25"/>
<polyline fill="none" stroke="#357f9e" points="369,-12 381,0"/>
<polyline fill="none" stroke="#357f9e" points="393.25,0 405.25,-12"/>
<polyline fill="none" stroke="#357f9e" points="405.25,-24.25 393.25,-36.25"/>
<text xml:space="preserve" text-anchor="middle" x="387.13" y="-13.1" font-family="Helvetica,sans-Serif" font-size="12.00" fill="#1a1a1a">Exit</text>
</g>
<!-- analyze -->
<g id="node4" class="node">
<title>analyze</title>
<polygon fill="none" stroke="#357f9e" points="333,-36.12 285.5,-36.12 285.5,-40.12 273.5,-40.12 273.5,-0.12 333,-0.12 333,-36.12"/>
<polyline fill="none" stroke="#357f9e" points="273.5,-36.12 285.5,-36.12"/>
<text xml:space="preserve" text-anchor="middle" x="303.25" y="-13.1" font-family="Helvetica,sans-Serif" font-size="12.00" fill="#1a1a1a">Analyze</text>
</g>
<!-- scan&#45;&gt;analyze -->
<g id="edge2" class="edge">
<title>scan&#45;&gt;analyze</title>
<path fill="none" stroke="#666666" d="M224.46,-18.12C236.92,-18.12 250.06,-18.12 261.93,-18.12"/>
<polygon fill="#666666" stroke="#666666" points="261.78,-21.63 271.78,-18.13 261.78,-14.63 261.78,-21.63"/>
</g>
<!-- analyze&#45;&gt;exit -->
<g id="edge3" class="edge">
<title>analyze&#45;&gt;exit</title>
<path fill="none" stroke="#666666" d="M333.35,-18.12C341.07,-18.12 349.41,-18.12 357.12,-18.12"/>
<polygon fill="#666666" stroke="#666666" points="357.05,-21.63 367.05,-18.13 357.05,-14.63 357.05,-21.63"/>
</g>
</g>
</svg>
