<?xml version="1.0" encoding="UTF-8" standalone="no"?>
<!DOCTYPE svg PUBLIC "-//W3C//DTD SVG 1.1//EN"
 "http://www.w3.org/Graphics/SVG/1.1/DTD/svg11.dtd">
<!-- Generated by graphviz version 14.1.2 (20260124.0452)
 -->
<!-- Title: HowArcWorks Pages: 1 -->
<svg width="684pt" height="424pt"
 viewBox="0.00 0.00 684.00 424.00" xmlns="http://www.w3.org/2000/svg" xmlns:xlink="http://www.w3.org/1999/xlink">
<style>
  @media (prefers-color-scheme: dark) {
    [fill="#1a1a1a"] { fill: #e5e5e5; }
    [fill="#666666"] { fill: #aaaaaa; }
    [stroke="#666666"] { stroke: #aaaaaa; }
    [stroke="#999999"] { stroke: #777777; }
  }
</style>
<g id="graph0" class="graph" transform="scale(1 1) rotate(0) translate(4 420)">
<title>HowArcWorks</title>
<g id="clust1" class="cluster">
<title>cluster_author</title>
<polygon fill="none" stroke="#999999" stroke-dasharray="5,2" points="8,-336 8,-408 304,-408 304,-336 8,-336"/>
<text xml:space="preserve" text-anchor="middle" x="156" y="-393.55" font-family="Helvetica,sans-Serif" font-size="11.00" fill="#666666">Author Time</text>
</g>
<g id="clust2" class="cluster">
<title>cluster_engine</title>
<polygon fill="none" stroke="#999999" stroke-dasharray="5,2" points="99,-8 99,-317 330,-317 330,-8 99,-8"/>
<text xml:space="preserve" text-anchor="middle" x="214.5" y="-302.55" font-family="Helvetica,sans-Serif" font-size="11.00" fill="#666666">Runtime</text>
</g>
<g id="clust3" class="cluster">
<title>cluster_external</title>
<polygon fill="none" stroke="#999999" stroke-dasharray="5,2" points="338,-8 338,-80 668,-80 668,-8 338,-8"/>
<text xml:space="preserve" text-anchor="middle" x="503" y="-65.55" font-family="Helvetica,sans-Serif" font-size="11.00" fill="#666666">External</text>
</g>
<!-- dot -->
<g id="node1" class="node">
<title>dot</title>
<polygon fill="none" stroke="#357f9e" points="71.5,-380 16.5,-380 16.5,-344 77.5,-344 77.5,-374 71.5,-380"/>
<polyline fill="none" stroke="#357f9e" points="71.5,-380 71.5,-374"/>
<polyline fill="none" stroke="#357f9e" points="77.5,-374 71.5,-374"/>
<text xml:space="preserve" text-anchor="middle" x="47" y="-363.55" font-family="Helvetica,sans-Serif" font-size="11.00" fill="#1a1a1a">Workflow</text>
<text xml:space="preserve" text-anchor="middle" x="47" y="-351.55" font-family="Helvetica,sans-Serif" font-size="11.00" fill="#1a1a1a">(.dot)</text>
</g>
<!-- parse -->
<g id="node4" class="node">
<title>parse</title>
<path fill="none" stroke="#357f9e" d="M182.75,-289C182.75,-289 129.25,-289 129.25,-289 123.25,-289 117.25,-283 117.25,-277 117.25,-277 117.25,-265 117.25,-265 117.25,-259 123.25,-253 129.25,-253 129.25,-253 182.75,-253 182.75,-253 188.75,-253 194.75,-259 194.75,-265 194.75,-265 194.75,-277 194.75,-277 194.75,-283 188.75,-289 182.75,-289"/>
<text xml:space="preserve" text-anchor="middle" x="156" y="-266.55" font-family="Helvetica,sans-Serif" font-size="11.00" fill="#1a1a1a">Parse Graph</text>
</g>
<!-- dot&#45;&gt;parse -->
<g id="edge1" class="edge">
<title>dot&#45;&gt;parse</title>
<path fill="none" stroke="#666666" d="M68.28,-343.63C84.71,-330.21 107.65,-311.48 125.95,-296.53"/>
<polygon fill="#666666" stroke="#666666" points="128.07,-299.32 133.61,-290.28 123.65,-293.9 128.07,-299.32"/>
</g>
<!-- toml -->
<g id="node2" class="node">
<title>toml</title>
<polygon fill="none" stroke="#357f9e" points="185.38,-380 120.62,-380 120.62,-344 191.38,-344 191.38,-374 185.38,-380"/>
<polyline fill="none" stroke="#357f9e" points="185.38,-380 185.38,-374"/>
<polyline fill="none" stroke="#357f9e" points="191.38,-374 185.38,-374"/>
<text xml:space="preserve" text-anchor="middle" x="156" y="-363.55" font-family="Helvetica,sans-Serif" font-size="11.00" fill="#1a1a1a">Run Config</text>
<text xml:space="preserve" text-anchor="middle" x="156" y="-351.55" font-family="Helvetica,sans-Serif" font-size="11.00" fill="#1a1a1a">(.toml)</text>
</g>
<!-- toml&#45;&gt;parse -->
<g id="edge2" class="edge">
<title>toml&#45;&gt;parse</title>
<path fill="none" stroke="#666666" d="M156,-343.84C156,-331.61 156,-314.87 156,-300.63"/>
<polygon fill="#666666" stroke="#666666" points="159.5,-300.92 156,-290.92 152.5,-300.92 159.5,-300.92"/>
</g>
<!-- env -->
<g id="node3" class="node">
<title>env</title>
<polygon fill="none" stroke="#357f9e" points="289.5,-380 234.5,-380 234.5,-344 295.5,-344 295.5,-374 289.5,-380"/>
<polyline fill="none" stroke="#357f9e" points="289.5,-380 289.5,-374"/>
<polyline fill="none" stroke="#357f9e" points="295.5,-374 289.5,-374"/>
<text xml:space="preserve" text-anchor="middle" x="265" y="-363.55" font-family="Helvetica,sans-Serif" font-size="11.00" fill="#1a1a1a">API Keys</text>
<text xml:space="preserve" text-anchor="middle" x="265" y="-351.55" font-family="Helvetica,sans-Serif" font-size="11.00" fill="#1a1a1a">(.env)</text>
</g>
<!-- env&#45;&gt;parse -->
<g id="edge3" class="edge">
<title>env&#45;&gt;parse</title>
<path fill="none" stroke="#666666" d="M243.72,-343.63C227.29,-330.21 204.35,-311.48 186.05,-296.53"/>
<polygon fill="#666666" stroke="#666666" points="188.35,-293.9 178.39,-290.28 183.93,-299.32 188.35,-293.9"/>
</g>
<!-- engine -->
<g id="node5" class="node">
<title>engine</title>
<path fill="none" stroke="#357f9e" stroke-width="2" d="M192.88,-216C192.88,-216 119.12,-216 119.12,-216 113.12,-216 107.12,-210 107.12,-204 107.12,-204 107.12,-192 107.12,-192 107.12,-186 113.12,-180 119.12,-180 119.12,-180 192.88,-180 192.88,-180 198.88,-180 204.88,-186 204.88,-192 204.88,-192 204.88,-204 204.88,-204 204.88,-210 198.88,-216 192.88,-216"/>
<text xml:space="preserve" text-anchor="middle" x="156" y="-193.55" font-family="Helvetica,sans-Serif" font-size="11.00" fill="#1a1a1a">Workflow Engine</text>
</g>
<!-- parse&#45;&gt;engine -->
<g id="edge4" class="edge">
<title>parse&#45;&gt;engine</title>
<path fill="none" stroke="#666666" d="M156,-252.81C156,-245.23 156,-236.1 156,-227.54"/>
<polygon fill="#666666" stroke="#666666" points="159.5,-227.54 156,-217.54 152.5,-227.54 159.5,-227.54"/>
</g>
<!-- handler -->
<g id="node6" class="node">
<title>handler</title>
<path fill="none" stroke="#357f9e" d="M310.38,-143C310.38,-143 245.62,-143 245.62,-143 239.62,-143 233.62,-137 233.62,-131 233.62,-131 233.62,-119 233.62,-119 233.62,-113 239.62,-107 245.62,-107 245.62,-107 310.38,-107 310.38,-107 316.38,-107 322.38,-113 322.38,-119 322.38,-119 322.38,-131 322.38,-131 322.38,-137 316.38,-143 310.38,-143"/>
<text xml:space="preserve" text-anchor="middle" x="278" y="-120.55" font-family="Helvetica,sans-Serif" font-size="11.00" fill="#1a1a1a">Node Handlers</text>
</g>
<!-- engine&#45;&gt;handler -->
<g id="edge5" class="edge">
<title>engine&#45;&gt;handler</title>
<path fill="none" stroke="#666666" d="M185.84,-179.63C201.65,-170.43 221.27,-159.02 238.33,-149.08"/>
<polygon fill="#666666" stroke="#666666" points="239.85,-152.25 246.73,-144.2 236.33,-146.2 239.85,-152.25"/>
</g>
<!-- transition -->
<g id="node7" class="node">
<title>transition</title>
<path fill="none" stroke="#357f9e" d="M247.38,-52C247.38,-52 182.62,-52 182.62,-52 176.62,-52 170.62,-46 170.62,-40 170.62,-40 170.62,-28 170.62,-28 170.62,-22 176.62,-16 182.62,-16 182.62,-16 247.38,-16 247.38,-16 253.38,-16 259.38,-22 259.38,-28 259.38,-28 259.38,-40 259.38,-40 259.38,-46 253.38,-52 247.38,-52"/>
<text xml:space="preserve" text-anchor="middle" x="215" y="-29.55" font-family="Helvetica,sans-Serif" font-size="11.00" fill="#1a1a1a">Edge Selection</text>
</g>
<!-- handler&#45;&gt;transition -->
<g id="edge6" class="edge">
<title>handler&#45;&gt;transition</title>
<path fill="none" stroke="#666666" d="M265.85,-106.84C256.76,-93.99 244.16,-76.19 233.77,-61.52"/>
<polygon fill="#666666" stroke="#666666" points="236.83,-59.79 228.2,-53.65 231.12,-63.83 236.83,-59.79"/>
</g>
<!-- llm -->
<g id="node8" class="node">
<title>llm</title>
<path fill="none" stroke="#357f9e" d="M395.88,-52C395.88,-52 358.12,-52 358.12,-52 352.12,-52 346.12,-46 346.12,-40 346.12,-40 346.12,-28 346.12,-28 346.12,-22 352.12,-16 358.12,-16 358.12,-16 395.88,-16 395.88,-16 401.88,-16 407.88,-22 407.88,-28 407.88,-28 407.88,-40 407.88,-40 407.88,-46 401.88,-52 395.88,-52"/>
<text xml:space="preserve" text-anchor="middle" x="377" y="-35.55" font-family="Helvetica,sans-Serif" font-size="11.00" fill="#1a1a1a">LLM</text>
<text xml:space="preserve" text-anchor="middle" x="377" y="-23.55" font-family="Helvetica,sans-Serif" font-size="11.00" fill="#1a1a1a">Providers</text>
</g>
<!-- handler&#45;&gt;llm -->
<g id="edge8" class="edge">
<title>handler&#45;&gt;llm</title>
<path fill="none" stroke="#666666" d="M305.75,-106.63C316.9,-99.07 329.57,-89.72 340,-80 346.21,-74.22 352.32,-67.39 357.73,-60.83"/>
<polygon fill="#666666" stroke="#666666" points="360.19,-63.36 363.68,-53.35 354.72,-59 360.19,-63.36"/>
</g>
<!-- sandbox -->
<g id="node9" class="node">
<title>sandbox</title>
<path fill="none" stroke="#357f9e" d="M550.62,-52C550.62,-52 463.38,-52 463.38,-52 457.38,-52 451.38,-46 451.38,-40 451.38,-40 451.38,-28 451.38,-28 451.38,-22 457.38,-16 463.38,-16 463.38,-16 550.62,-16 550.62,-16 556.62,-16 562.62,-22 562.62,-28 562.62,-28 562.62,-40 562.62,-40 562.62,-46 556.62,-52 550.62,-52"/>
<text xml:space="preserve" text-anchor="middle" x="507" y="-35.55" font-family="Helvetica,sans-Serif" font-size="11.00" fill="#1a1a1a">Sandbox</text>
<text xml:space="preserve" text-anchor="middle" x="507" y="-23.55" font-family="Helvetica,sans-Serif" font-size="11.00" fill="#1a1a1a">(local/Docker/cloud)</text>
</g>
<!-- handler&#45;&gt;sandbox -->
<g id="edge9" class="edge">
<title>handler&#45;&gt;sandbox</title>
<path fill="none" stroke="#666666" d="M322.58,-114C353.17,-106.42 394.34,-94.79 429,-80 443.07,-74 457.78,-66.01 470.58,-58.43"/>
<polygon fill="#666666" stroke="#666666" points="472.36,-61.44 479.1,-53.27 468.73,-55.46 472.36,-61.44"/>
</g>
<!-- human -->
<g id="node10" class="node">
<title>human</title>
<path fill="none" stroke="#357f9e" d="M648,-52C648,-52 618,-52 618,-52 612,-52 606,-46 606,-40 606,-40 606,-28 606,-28 606,-22 612,-16 618,-16 618,-16 648,-16 648,-16 654,-16 660,-22 660,-28 660,-28 660,-40 660,-40 660,-46 654,-52 648,-52"/>
<text xml:space="preserve" text-anchor="middle" x="633" y="-35.55" font-family="Helvetica,sans-Serif" font-size="11.00" fill="#1a1a1a">Human</text>
<text xml:space="preserve" text-anchor="middle" x="633" y="-23.55" font-family="Helvetica,sans-Serif" font-size="11.00" fill="#1a1a1a">Input</text>
</g>
<!-- handler&#45;&gt;human -->
<g id="edge10" class="edge">
<title>handler&#45;&gt;human</title>
<path fill="none" stroke="#666666" d="M322.82,-120.82C396.28,-115.07 538.66,-101.5 584,-80 593.96,-75.27 603.31,-67.82 611.11,-60.32"/>
<polygon fill="#666666" stroke="#666666" points="613.4,-62.98 617.88,-53.38 608.39,-58.1 613.4,-62.98"/>
</g>
<!-- transition&#45;&gt;engine -->
<g id="edge7" class="edge">
<title>transition&#45;&gt;engine</title>
<path fill="none" stroke="#666666" d="M201.94,-52.39C192.05,-66.41 178.95,-87.02 171.5,-107 164.13,-126.77 160.23,-150.3 158.19,-168.35"/>
<polygon fill="#666666" stroke="#666666" points="154.73,-167.78 157.22,-178.08 161.69,-168.47 154.73,-167.78"/>
<text xml:space="preserve" text-anchor="middle" x="191.75" y="-121.33" font-family="Helvetica,sans-Serif" font-size="9.00" fill="#666666">next node</text>
</g>
</g>
</svg>
