<?xml version="1.0" encoding="UTF-8" standalone="no"?>
<!DOCTYPE svg PUBLIC "-//W3C//DTD SVG 1.1//EN"
 "http://www.w3.org/Graphics/SVG/1.1/DTD/svg11.dtd">
<!-- Generated by graphviz version 14.1.2 (20260124.0452)
 -->
<!-- Title: NLSpecConformance Pages: 1 -->
<svg width="1145pt" height="132pt"
 viewBox="0.00 0.00 1145.00 132.00" xmlns="http://www.w3.org/2000/svg" xmlns:xlink="http://www.w3.org/1999/xlink">
<style>
  @media (prefers-color-scheme: dark) {
    [fill="#1a1a1a"] { fill: #e5e5e5; }
    [fill="#666666"] { fill: #aaaaaa; }
    [stroke="#666666"] { stroke: #aaaaaa; }
    [stroke="#999999"] { stroke: #777777; }
  }
</style>
<g id="graph0" class="graph" transform="scale(1 1) rotate(0) translate(4 128.22)">
<title>NLSpecConformance</title>
<!-- start -->
<g id="node1" class="node">
<title>start</title>
<polygon fill="none" stroke="#357f9e" points="35.26,-77.72 0,-59.72 35.26,-41.72 70.52,-59.72 35.26,-77.72"/>
<polyline fill="none" stroke="#357f9e" points="10.69,-65.18 10.69,-54.26"/>
<polyline fill="none" stroke="#357f9e" points="24.57,-47.18 45.95,-47.18"/>
<polyline fill="none" stroke="#357f9e" points="59.83,-54.26 59.83,-65.18"/>
<polyline fill="none" stroke="#357f9e" points="45.95,-72.26 24.57,-72.26"/>
<text xml:space="preserve" text-anchor="middle" x="35.26" y="-54.69" font-family="Helvetica,sans-Serif" font-size="12.00" fill="#1a1a1a">Start</text>
</g>
<!-- plan -->
<g id="node3" class="node">
<title>plan</title>
<ellipse fill="none" stroke="#357f9e" cx="142.52" cy="-59.72" rx="27" ry="18"/>
<text xml:space="preserve" text-anchor="middle" x="142.52" y="-54.69" font-family="Helvetica,sans-Serif" font-size="12.00" fill="#1a1a1a">Plan</text>
</g>
<!-- start&#45;&gt;plan -->
<g id="edge1" class="edge">
<title>start&#45;&gt;plan</title>
<path fill="none" stroke="#666666" d="M71.6,-59.72C81.93,-59.72 93.26,-59.72 103.73,-59.72"/>
<polygon fill="#666666" stroke="#666666" points="103.58,-63.22 113.58,-59.72 103.58,-56.22 103.58,-63.22"/>
</g>
<!-- exit -->
<g id="node2" class="node">
<title>exit</title>
<polygon fill="none" stroke="#357f9e" points="1137.03,-108.84 1100.78,-108.84 1100.78,-72.59 1137.03,-72.59 1137.03,-108.84"/>
<polyline fill="none" stroke="#357f9e" points="1112.78,-108.84 1100.78,-96.84"/>
<polyline fill="none" stroke="#357f9e" points="1100.78,-84.59 1112.78,-72.59"/>
<polyline fill="none" stroke="#357f9e" points="1125.03,-72.59 1137.03,-84.59"/>
<polyline fill="none" stroke="#357f9e" points="1137.03,-96.84 1125.03,-108.84"/>
<text xml:space="preserve" text-anchor="middle" x="1118.91" y="-85.69" font-family="Helvetica,sans-Serif" font-size="12.00" fill="#1a1a1a">Exit</text>
</g>
<!-- implement -->
<g id="node4" class="node">
<title>implement</title>
<ellipse fill="none" stroke="#357f9e" cx="258.27" cy="-59.72" rx="43.75" ry="18"/>
<text xml:space="preserve" text-anchor="middle" x="258.27" y="-54.69" font-family="Helvetica,sans-Serif" font-size="12.00" fill="#1a1a1a">Implement</text>
</g>
<!-- plan&#45;&gt;implement -->
<g id="edge2" class="edge">
<title>plan&#45;&gt;implement</title>
<path fill="none" stroke="#666666" d="M169.9,-59.72C179.75,-59.72 191.32,-59.72 202.77,-59.72"/>
<polygon fill="#666666" stroke="#666666" points="202.59,-63.22 212.59,-59.72 202.59,-56.22 202.59,-63.22"/>
</g>
<!-- test_quick -->
<g id="node5" class="node">
<title>test_quick</title>
<polygon fill="none" stroke="#357f9e" points="486.07,-77.72 375.47,-77.72 347.02,-41.72 457.62,-41.72 486.07,-77.72"/>
<text xml:space="preserve" text-anchor="middle" x="416.54" y="-54.69" font-family="Helvetica,sans-Serif" font-size="12.00" fill="#1a1a1a">Quick Tests</text>
</g>
<!-- implement&#45;&gt;test_quick -->
<g id="edge3" class="edge">
<title>implement&#45;&gt;test_quick</title>
<path fill="none" stroke="#666666" d="M302.39,-59.72C316.93,-59.72 333.51,-59.72 349.41,-59.72"/>
<polygon fill="#666666" stroke="#666666" points="349.31,-63.22 359.31,-59.72 349.31,-56.22 349.31,-63.22"/>
</g>
<!-- gate_quick -->
<g id="node6" class="node">
<title>gate_quick</title>
<polygon fill="none" stroke="#357f9e" points="595.82,-93.22 531.07,-59.72 595.82,-26.22 660.57,-59.72 595.82,-93.22"/>
<text xml:space="preserve" text-anchor="middle" x="595.82" y="-61.07" font-family="Helvetica,sans-Serif" font-size="12.00" fill="#1a1a1a">Quick</text>
<text xml:space="preserve" text-anchor="middle" x="595.82" y="-48.32" font-family="Helvetica,sans-Serif" font-size="12.00" fill="#1a1a1a">passing?</text>
</g>
<!-- test_quick&#45;&gt;gate_quick -->
<g id="edge4" class="edge">
<title>test_quick&#45;&gt;gate_quick</title>
<path fill="none" stroke="#666666" d="M472.18,-59.72C486.92,-59.72 503.13,-59.72 518.8,-59.72"/>
<polygon fill="#666666" stroke="#666666" points="518.58,-63.22 528.58,-59.72 518.58,-56.22 518.58,-63.22"/>
</g>
<!-- test_full -->
<g id="node7" class="node">
<title>test_full</title>
<polygon fill="none" stroke="#357f9e" points="847.28,-108.72 751.67,-108.72 727.07,-72.72 822.69,-72.72 847.28,-108.72"/>
<text xml:space="preserve" text-anchor="middle" x="787.18" y="-85.69" font-family="Helvetica,sans-Serif" font-size="12.00" fill="#1a1a1a">Full Tests</text>
</g>
<!-- gate_quick&#45;&gt;test_full -->
<g id="edge5" class="edge">
<title>gate_quick&#45;&gt;test_full</title>
<path fill="none" stroke="#666666" d="M645.58,-67.7C668.77,-71.5 696.81,-76.09 721.72,-80.17"/>
<polygon fill="#666666" stroke="#666666" points="720.99,-83.59 731.43,-81.76 722.12,-76.69 720.99,-83.59"/>
<text xml:space="preserve" text-anchor="middle" x="693.82" y="-78.83" font-family="Helvetica,sans-Serif" font-size="10.00" fill="#666666">Pass</text>
</g>
<!-- fix -->
<g id="node9" class="node">
<title>fix</title>
<ellipse fill="none" stroke="#357f9e" cx="787.18" cy="-18.72" rx="48.34" ry="18"/>
<text xml:space="preserve" text-anchor="middle" x="787.18" y="-13.69" font-family="Helvetica,sans-Serif" font-size="12.00" fill="#1a1a1a">Fix Failures</text>
</g>
<!-- gate_quick&#45;&gt;fix -->
<g id="edge6" class="edge">
<title>gate_quick&#45;&gt;fix</title>
<path fill="none" stroke="#666666" d="M642.18,-49.9C669.7,-43.94 704.95,-36.31 733.68,-30.09"/>
<polygon fill="#666666" stroke="#666666" points="734.24,-33.55 743.27,-28.01 732.75,-26.71 734.24,-33.55"/>
<text xml:space="preserve" text-anchor="middle" x="693.82" y="-42.2" font-family="Helvetica,sans-Serif" font-size="10.00" fill="#666666">Fix</text>
</g>
<!-- gate_full -->
<g id="node8" class="node">
<title>gate_full</title>
<polygon fill="none" stroke="#357f9e" points="969.53,-124.22 904.78,-90.72 969.53,-57.22 1034.28,-90.72 969.53,-124.22"/>
<text xml:space="preserve" text-anchor="middle" x="969.53" y="-92.07" font-family="Helvetica,sans-Serif" font-size="12.00" fill="#1a1a1a">All</text>
<text xml:space="preserve" text-anchor="middle" x="969.53" y="-79.32" font-family="Helvetica,sans-Serif" font-size="12.00" fill="#1a1a1a">passing?</text>
</g>
<!-- test_full&#45;&gt;gate_full -->
<g id="edge8" class="edge">
<title>test_full&#45;&gt;gate_full</title>
<path fill="none" stroke="#666666" d="M835.56,-90.72C853.01,-90.72 873.24,-90.72 892.58,-90.72"/>
<polygon fill="#666666" stroke="#666666" points="892.32,-94.22 902.32,-90.72 892.32,-87.22 892.32,-94.22"/>
</g>
<!-- gate_full&#45;&gt;exit -->
<g id="edge9" class="edge">
<title>gate_full&#45;&gt;exit</title>
<path fill="none" stroke="#666666" d="M1035.17,-90.72C1053.97,-90.72 1073.56,-90.72 1088.96,-90.72"/>
<polygon fill="#666666" stroke="#666666" points="1088.8,-94.22 1098.8,-90.72 1088.8,-87.22 1088.8,-94.22"/>
<text xml:space="preserve" text-anchor="middle" x="1067.53" y="-92.47" font-family="Helvetica,sans-Serif" font-size="10.00" fill="#666666">Pass</text>
</g>
<!-- gate_full&#45;&gt;fix -->
<g id="edge10" class="edge">
<title>gate_full&#45;&gt;fix</title>
<path fill="none" stroke="#666666" d="M931.94,-76.11C902.93,-64.53 862.32,-48.32 831.65,-36.08"/>
<polygon fill="#666666" stroke="#666666" points="833.25,-32.94 822.66,-32.49 830.65,-39.45 833.25,-32.94"/>
<text xml:space="preserve" text-anchor="middle" x="876.03" y="-56.47" font-family="Helvetica,sans-Serif" font-size="10.00" fill="#666666">Fix</text>
</g>
<!-- fix&#45;&gt;test_quick -->
<g id="edge7" class="edge">
<title>fix&#45;&gt;test_quick</title>
<path fill="none" stroke="#666666" d="M743.64,-10.67C692.55,-2.47 604.53,7.02 531.07,-8.72 505.95,-14.1 479.67,-25.49 458.73,-36.14"/>
<polygon fill="#666666" stroke="#666666" points="457.18,-33 449.95,-40.74 460.43,-39.2 457.18,-33"/>
</g>
</g>
</svg>
